<svg width="224" height="87" viewBox="0 0 224 87" fill="none" xmlns="http://www.w3.org/2000/svg">
<mask id="path-1-outside-1_1168_3355" maskUnits="userSpaceOnUse" x="3" y="4" width="216" height="80" fill="black">
<rect fill="white" x="3" y="4" width="216" height="80"/>
<path d="M34.25 23.1L31.59 61.95C31.5433 62.65 31.2867 63 30.82 63H26.97C24.3567 63 22.49 62.4867 21.37 61.46C20.25 60.4333 19.69 58.9633 19.69 57.05C19.69 56.35 19.7133 55.3 19.76 53.9C19.8533 52.5 19.97 50.8667 20.11 49C20.25 47.0867 20.39 45.0333 20.53 42.84C20.7167 40.6 20.9033 38.36 21.09 36.12C21.2767 33.8333 21.44 31.57 21.58 29.33C21.7667 27.09 21.93 25.0133 22.07 23.1H10.87C10.3567 23.1 10.1 22.7733 10.1 22.12L10.31 18.2C10.3567 17.5933 10.45 17.01 10.59 16.45C10.7767 15.8433 11.0567 15.3067 11.43 14.84C11.8033 14.3733 12.27 14 12.83 13.72C13.4367 13.44 14.16 13.3 15 13.3H46.29C46.57 13.3 46.8267 13.37 47.06 13.51C47.2933 13.65 47.41 13.9067 47.41 14.28L47.13 18.41C47.0367 19.81 46.64 20.9533 45.94 21.84C45.2867 22.68 43.91 23.1 41.81 23.1H34.25ZM55.6033 30.45C55.6033 31.43 55.5099 32.8067 55.3233 34.58C55.1833 36.3533 55.0199 38.1967 54.8333 40.11C54.6933 42.0233 54.5299 43.82 54.3433 45.5C54.2033 47.18 54.1333 48.3933 54.1333 49.14C54.1333 50.7733 54.5299 52.0567 55.3233 52.99C56.1633 53.8767 57.3066 54.32 58.7533 54.32C60.0133 54.32 61.0633 53.83 61.9033 52.85C62.7899 51.8233 63.4899 50.5167 64.0033 48.93C64.5633 47.2967 65.0066 45.4533 65.3333 43.4C65.6599 41.3467 65.8933 39.27 66.0333 37.17C66.2199 35.07 66.3599 33.04 66.4533 31.08C66.5933 29.0733 66.7333 27.3467 66.8733 25.9C66.9199 25.5267 67.0599 25.2 67.2933 24.92C67.5266 24.64 67.8999 24.5 68.4133 24.5H70.9333C72.3799 24.5 73.5466 24.6633 74.4333 24.99C75.3666 25.27 76.0899 25.69 76.6033 26.25C77.1633 26.81 77.5366 27.51 77.7233 28.35C77.9566 29.1433 78.0733 30.0767 78.0733 31.15C78.0733 31.85 78.0266 32.8533 77.9333 34.16C77.8866 35.42 77.7699 37.1933 77.5833 39.48C77.3966 41.72 77.1633 44.59 76.8833 48.09C76.6499 51.5433 76.3466 55.8367 75.9733 60.97C75.8799 61.95 75.7633 62.5333 75.6233 62.72C75.5299 62.9067 75.1566 63 74.5033 63H71.7733C70.3733 63 69.2066 62.8367 68.2733 62.51C67.3866 62.1833 66.6633 61.7633 66.1033 61.25C65.5433 60.7367 65.1466 60.13 64.9133 59.43C64.6799 58.73 64.5399 58.0067 64.4933 57.26C63.7933 58.4733 62.9999 59.5 62.1133 60.34C61.2733 61.18 60.3866 61.8567 59.4533 62.37C58.5199 62.8367 57.5633 63.1633 56.5833 63.35C55.6033 63.5833 54.6466 63.7 53.7133 63.7C51.9399 63.7 50.3533 63.42 48.9533 62.86C47.5533 62.2533 46.3633 61.46 45.3833 60.48C44.4499 59.5 43.7266 58.3333 43.2133 56.98C42.6999 55.6267 42.4433 54.18 42.4433 52.64C42.4433 52.0333 42.4666 51.0533 42.5133 49.7C42.6066 48.3 42.6999 46.7367 42.7933 45.01C42.9333 43.2833 43.0733 41.4633 43.2133 39.55C43.3533 37.59 43.4699 35.7467 43.5633 34.02C43.7033 32.2933 43.8199 30.7767 43.9133 29.47C44.0533 28.1633 44.1466 27.23 44.1933 26.67C44.2866 25.83 44.4733 25.27 44.7533 24.99C45.0333 24.6633 45.4999 24.5 46.1533 24.5H48.3933C49.8399 24.5 51.0299 24.64 51.9633 24.92C52.8966 25.2 53.6199 25.5967 54.1333 26.11C54.6933 26.6233 55.0666 27.2533 55.2533 28C55.4866 28.7 55.6033 29.5167 55.6033 30.45ZM96.7359 63.7C93.1426 63.7 90.2959 63.1867 88.1959 62.16C86.0959 61.0867 84.5093 59.7567 83.4359 58.17C82.3626 56.5833 81.6859 54.88 81.4059 53.06C81.1259 51.1933 80.9859 49.49 80.9859 47.95C80.9859 47.3433 81.0326 46.1533 81.1259 44.38C81.2659 42.6067 81.4293 40.5533 81.6159 38.22C81.8026 35.8867 81.9893 33.4133 82.1759 30.8C82.3626 28.14 82.5493 25.6433 82.7359 23.31C82.9226 20.93 83.0626 18.83 83.1559 17.01C83.2959 15.19 83.3659 13.93 83.3659 13.23C83.3659 12.2033 83.4359 11.62 83.5759 11.48C83.7159 11.2933 84.1359 11.2 84.8359 11.2H87.5659C88.9659 11.2 90.1326 11.3633 91.0659 11.69C91.9993 12.0167 92.7459 12.46 93.3059 13.02C93.8659 13.58 94.2626 14.2333 94.4959 14.98C94.7293 15.68 94.8459 16.45 94.8459 17.29C94.8459 18.0833 94.7526 19.6233 94.5659 21.91C94.4259 24.1967 94.2393 26.88 94.0059 29.96C95.2193 27.86 96.5959 26.32 98.1359 25.34C99.6759 24.3133 101.706 23.8 104.226 23.8C108.473 23.8 111.716 25.2 113.956 28C116.243 30.8 117.386 34.9767 117.386 40.53C117.386 41.9767 117.269 43.5633 117.036 45.29C116.849 47.0167 116.476 48.7433 115.916 50.47C115.403 52.15 114.656 53.8067 113.676 55.44C112.743 57.0267 111.506 58.4267 109.966 59.64C108.426 60.8533 106.559 61.8333 104.366 62.58C102.219 63.3267 99.6759 63.7 96.7359 63.7ZM99.8859 33.11C98.2059 33.11 96.8759 33.5533 95.8959 34.44C94.9626 35.3267 94.2393 36.4 93.7259 37.66C93.2126 38.92 92.8859 40.2733 92.7459 41.72C92.6059 43.12 92.5359 44.3567 92.5359 45.43C92.5359 48.65 92.9793 50.96 93.8659 52.36C94.7526 53.7133 96.0826 54.39 97.8559 54.39C99.5359 54.39 100.843 53.8767 101.776 52.85C102.756 51.7767 103.479 50.5167 103.946 49.07C104.459 47.6233 104.786 46.1533 104.926 44.66C105.066 43.1667 105.136 42 105.136 41.16C105.136 38.5467 104.739 36.5633 103.946 35.21C103.153 33.81 101.799 33.11 99.8859 33.11ZM135.209 63.7C131.615 63.7 128.769 63.1867 126.669 62.16C124.569 61.0867 122.982 59.7567 121.909 58.17C120.835 56.5833 120.159 54.88 119.879 53.06C119.599 51.1933 119.459 49.49 119.459 47.95C119.459 47.3433 119.505 46.1533 119.599 44.38C119.739 42.6067 119.902 40.5533 120.089 38.22C120.275 35.8867 120.462 33.4133 120.649 30.8C120.835 28.14 121.022 25.6433 121.209 23.31C121.395 20.93 121.535 18.83 121.629 17.01C121.769 15.19 121.839 13.93 121.839 13.23C121.839 12.2033 121.909 11.62 122.049 11.48C122.189 11.2933 122.609 11.2 123.309 11.2H126.039C127.439 11.2 128.605 11.3633 129.539 11.69C130.472 12.0167 131.219 12.46 131.779 13.02C132.339 13.58 132.735 14.2333 132.969 14.98C133.202 15.68 133.319 16.45 133.319 17.29C133.319 18.0833 133.225 19.6233 133.039 21.91C132.899 24.1967 132.712 26.88 132.479 29.96C133.692 27.86 135.069 26.32 136.609 25.34C138.149 24.3133 140.179 23.8 142.699 23.8C146.945 23.8 150.189 25.2 152.429 28C154.715 30.8 155.859 34.9767 155.859 40.53C155.859 41.9767 155.742 43.5633 155.509 45.29C155.322 47.0167 154.949 48.7433 154.389 50.47C153.875 52.15 153.129 53.8067 152.149 55.44C151.215 57.0267 149.979 58.4267 148.439 59.64C146.899 60.8533 145.032 61.8333 142.839 62.58C140.692 63.3267 138.149 63.7 135.209 63.7ZM138.359 33.11C136.679 33.11 135.349 33.5533 134.369 34.44C133.435 35.3267 132.712 36.4 132.199 37.66C131.685 38.92 131.359 40.2733 131.219 41.72C131.079 43.12 131.009 44.3567 131.009 45.43C131.009 48.65 131.452 50.96 132.339 52.36C133.225 53.7133 134.555 54.39 136.329 54.39C138.009 54.39 139.315 53.8767 140.249 52.85C141.229 51.7767 141.952 50.5167 142.419 49.07C142.932 47.6233 143.259 46.1533 143.399 44.66C143.539 43.1667 143.609 42 143.609 41.16C143.609 38.5467 143.212 36.5633 142.419 35.21C141.625 33.81 140.272 33.11 138.359 33.11ZM165.771 63.63C162.878 63.63 160.801 62.86 159.541 61.32C158.281 59.78 157.651 57.2367 157.651 53.69C157.651 53.13 157.675 52.43 157.721 51.59C157.815 50.75 157.908 49.6767 158.001 48.37C158.141 47.0167 158.305 45.36 158.491 43.4C158.678 41.44 158.865 39.06 159.051 36.26C159.285 33.46 159.518 30.17 159.751 26.39C160.031 22.61 160.311 18.2233 160.591 13.23C160.638 12.2033 160.755 11.5967 160.941 11.41C161.081 11.27 161.455 11.2 162.061 11.2H164.791C166.191 11.2 167.358 11.3633 168.291 11.69C169.225 12.0167 169.971 12.46 170.531 13.02C171.091 13.58 171.488 14.2333 171.721 14.98C171.955 15.68 172.071 16.4267 172.071 17.22C172.071 18.1533 172.001 19.5067 171.861 21.28C171.768 23.0067 171.628 24.9667 171.441 27.16C171.255 29.3533 171.068 31.64 170.881 34.02C170.695 36.4 170.508 38.6867 170.321 40.88C170.135 43.0267 169.971 44.9633 169.831 46.69C169.738 48.4167 169.691 49.7233 169.691 50.61C169.691 51.8233 169.901 52.6867 170.321 53.2C170.788 53.7133 171.278 54.0867 171.791 54.32C172.305 54.5067 172.771 54.6467 173.191 54.74C173.658 54.7867 173.891 54.9267 173.891 55.16C173.891 56.1867 173.775 57.2133 173.541 58.24C173.308 59.22 172.888 60.13 172.281 60.97C171.675 61.7633 170.835 62.4167 169.761 62.93C168.735 63.3967 167.405 63.63 165.771 63.63ZM188.644 30.94C188.644 32.0133 188.574 33.2967 188.434 34.79C188.294 36.2367 188.131 37.7067 187.944 39.2C187.804 40.6467 187.664 42.0233 187.524 43.33C187.384 44.59 187.314 45.57 187.314 46.27C187.314 48.0433 187.734 49.3733 188.574 50.26C189.461 51.1 190.534 51.52 191.794 51.52C193.988 51.52 195.738 50.3767 197.044 48.09C198.351 45.8033 199.168 42.77 199.494 38.99L200.614 25.9C200.661 25.3867 200.824 25.0367 201.104 24.85C201.431 24.6167 201.781 24.5 202.154 24.5H204.674C205.654 24.5 206.564 24.5933 207.404 24.78C208.291 24.92 209.061 25.2233 209.714 25.69C210.368 26.11 210.881 26.6933 211.254 27.44C211.628 28.1867 211.814 29.1433 211.814 30.31C211.814 30.7767 211.768 31.6633 211.674 32.97C211.628 34.23 211.511 36.0733 211.324 38.5C211.184 40.88 210.974 43.9133 210.694 47.6C210.414 51.24 210.088 55.6967 209.714 60.97C209.481 64.05 208.781 66.5933 207.614 68.6C206.494 70.6533 205.071 72.2633 203.344 73.43C201.618 74.6433 199.681 75.4833 197.534 75.95C195.388 76.4167 193.194 76.65 190.954 76.65C188.574 76.65 186.381 76.44 184.374 76.02C182.414 75.6 180.711 75.0167 179.264 74.27C177.818 73.5233 176.674 72.66 175.834 71.68C175.041 70.7 174.644 69.65 174.644 68.53C174.644 67.6433 174.831 66.8733 175.204 66.22C175.624 65.5667 176.161 65.03 176.814 64.61C177.468 64.19 178.214 63.8633 179.054 63.63C179.941 63.4433 180.851 63.35 181.784 63.35C182.251 63.35 182.578 63.5833 182.764 64.05C182.998 64.5167 183.324 65.03 183.744 65.59C184.211 66.1967 184.934 66.7333 185.914 67.2C186.894 67.6667 188.364 67.9 190.324 67.9C192.051 67.9 193.451 67.48 194.524 66.64C195.598 65.8 196.414 64.7267 196.974 63.42C197.581 62.1133 197.978 60.69 198.164 59.15C198.351 57.61 198.444 56.14 198.444 54.74C197.698 56.0467 196.858 57.12 195.924 57.96C195.038 58.7533 194.104 59.3833 193.124 59.85C192.144 60.27 191.164 60.55 190.184 60.69C189.204 60.83 188.271 60.9 187.384 60.9C185.658 60.9 184.071 60.6667 182.624 60.2C181.224 59.7333 180.011 58.9867 178.984 57.96C177.958 56.8867 177.164 55.51 176.604 53.83C176.044 52.15 175.764 50.12 175.764 47.74C175.764 46.8533 175.811 45.6867 175.904 44.24C175.998 42.7467 176.114 41.09 176.254 39.27C176.394 37.4033 176.534 35.3967 176.674 33.25C176.861 31.1033 177.048 28.91 177.234 26.67C177.328 25.2233 177.981 24.5 179.194 24.5H181.434C182.928 24.5 184.141 24.64 185.074 24.92C186.008 25.2 186.731 25.62 187.244 26.18C187.804 26.6933 188.178 27.37 188.364 28.21C188.551 29.0033 188.644 29.9133 188.644 30.94Z"/>
</mask>
<path d="M34.25 23.1L31.59 61.95C31.5433 62.65 31.2867 63 30.82 63H26.97C24.3567 63 22.49 62.4867 21.37 61.46C20.25 60.4333 19.69 58.9633 19.69 57.05C19.69 56.35 19.7133 55.3 19.76 53.9C19.8533 52.5 19.97 50.8667 20.11 49C20.25 47.0867 20.39 45.0333 20.53 42.84C20.7167 40.6 20.9033 38.36 21.09 36.12C21.2767 33.8333 21.44 31.57 21.58 29.33C21.7667 27.09 21.93 25.0133 22.07 23.1H10.87C10.3567 23.1 10.1 22.7733 10.1 22.12L10.31 18.2C10.3567 17.5933 10.45 17.01 10.59 16.45C10.7767 15.8433 11.0567 15.3067 11.43 14.84C11.8033 14.3733 12.27 14 12.83 13.72C13.4367 13.44 14.16 13.3 15 13.3H46.29C46.57 13.3 46.8267 13.37 47.06 13.51C47.2933 13.65 47.41 13.9067 47.41 14.28L47.13 18.41C47.0367 19.81 46.64 20.9533 45.94 21.84C45.2867 22.68 43.91 23.1 41.81 23.1H34.25ZM55.6033 30.45C55.6033 31.43 55.5099 32.8067 55.3233 34.58C55.1833 36.3533 55.0199 38.1967 54.8333 40.11C54.6933 42.0233 54.5299 43.82 54.3433 45.5C54.2033 47.18 54.1333 48.3933 54.1333 49.14C54.1333 50.7733 54.5299 52.0567 55.3233 52.99C56.1633 53.8767 57.3066 54.32 58.7533 54.32C60.0133 54.32 61.0633 53.83 61.9033 52.85C62.7899 51.8233 63.4899 50.5167 64.0033 48.93C64.5633 47.2967 65.0066 45.4533 65.3333 43.4C65.6599 41.3467 65.8933 39.27 66.0333 37.17C66.2199 35.07 66.3599 33.04 66.4533 31.08C66.5933 29.0733 66.7333 27.3467 66.8733 25.9C66.9199 25.5267 67.0599 25.2 67.2933 24.92C67.5266 24.64 67.8999 24.5 68.4133 24.5H70.9333C72.3799 24.5 73.5466 24.6633 74.4333 24.99C75.3666 25.27 76.0899 25.69 76.6033 26.25C77.1633 26.81 77.5366 27.51 77.7233 28.35C77.9566 29.1433 78.0733 30.0767 78.0733 31.15C78.0733 31.85 78.0266 32.8533 77.9333 34.16C77.8866 35.42 77.7699 37.1933 77.5833 39.48C77.3966 41.72 77.1633 44.59 76.8833 48.09C76.6499 51.5433 76.3466 55.8367 75.9733 60.97C75.8799 61.95 75.7633 62.5333 75.6233 62.72C75.5299 62.9067 75.1566 63 74.5033 63H71.7733C70.3733 63 69.2066 62.8367 68.2733 62.51C67.3866 62.1833 66.6633 61.7633 66.1033 61.25C65.5433 60.7367 65.1466 60.13 64.9133 59.43C64.6799 58.73 64.5399 58.0067 64.4933 57.26C63.7933 58.4733 62.9999 59.5 62.1133 60.34C61.2733 61.18 60.3866 61.8567 59.4533 62.37C58.5199 62.8367 57.5633 63.1633 56.5833 63.35C55.6033 63.5833 54.6466 63.7 53.7133 63.7C51.9399 63.7 50.3533 63.42 48.9533 62.86C47.5533 62.2533 46.3633 61.46 45.3833 60.48C44.4499 59.5 43.7266 58.3333 43.2133 56.98C42.6999 55.6267 42.4433 54.18 42.4433 52.64C42.4433 52.0333 42.4666 51.0533 42.5133 49.7C42.6066 48.3 42.6999 46.7367 42.7933 45.01C42.9333 43.2833 43.0733 41.4633 43.2133 39.55C43.3533 37.59 43.4699 35.7467 43.5633 34.02C43.7033 32.2933 43.8199 30.7767 43.9133 29.47C44.0533 28.1633 44.1466 27.23 44.1933 26.67C44.2866 25.83 44.4733 25.27 44.7533 24.99C45.0333 24.6633 45.4999 24.5 46.1533 24.5H48.3933C49.8399 24.5 51.0299 24.64 51.9633 24.92C52.8966 25.2 53.6199 25.5967 54.1333 26.11C54.6933 26.6233 55.0666 27.2533 55.2533 28C55.4866 28.7 55.6033 29.5167 55.6033 30.45ZM96.7359 63.7C93.1426 63.7 90.2959 63.1867 88.1959 62.16C86.0959 61.0867 84.5093 59.7567 83.4359 58.17C82.3626 56.5833 81.6859 54.88 81.4059 53.06C81.1259 51.1933 80.9859 49.49 80.9859 47.95C80.9859 47.3433 81.0326 46.1533 81.1259 44.38C81.2659 42.6067 81.4293 40.5533 81.6159 38.22C81.8026 35.8867 81.9893 33.4133 82.1759 30.8C82.3626 28.14 82.5493 25.6433 82.7359 23.31C82.9226 20.93 83.0626 18.83 83.1559 17.01C83.2959 15.19 83.3659 13.93 83.3659 13.23C83.3659 12.2033 83.4359 11.62 83.5759 11.48C83.7159 11.2933 84.1359 11.2 84.8359 11.2H87.5659C88.9659 11.2 90.1326 11.3633 91.0659 11.69C91.9993 12.0167 92.7459 12.46 93.3059 13.02C93.8659 13.58 94.2626 14.2333 94.4959 14.98C94.7293 15.68 94.8459 16.45 94.8459 17.29C94.8459 18.0833 94.7526 19.6233 94.5659 21.91C94.4259 24.1967 94.2393 26.88 94.0059 29.96C95.2193 27.86 96.5959 26.32 98.1359 25.34C99.6759 24.3133 101.706 23.8 104.226 23.8C108.473 23.8 111.716 25.2 113.956 28C116.243 30.8 117.386 34.9767 117.386 40.53C117.386 41.9767 117.269 43.5633 117.036 45.29C116.849 47.0167 116.476 48.7433 115.916 50.47C115.403 52.15 114.656 53.8067 113.676 55.44C112.743 57.0267 111.506 58.4267 109.966 59.64C108.426 60.8533 106.559 61.8333 104.366 62.58C102.219 63.3267 99.6759 63.7 96.7359 63.7ZM99.8859 33.11C98.2059 33.11 96.8759 33.5533 95.8959 34.44C94.9626 35.3267 94.2393 36.4 93.7259 37.66C93.2126 38.92 92.8859 40.2733 92.7459 41.72C92.6059 43.12 92.5359 44.3567 92.5359 45.43C92.5359 48.65 92.9793 50.96 93.8659 52.36C94.7526 53.7133 96.0826 54.39 97.8559 54.39C99.5359 54.39 100.843 53.8767 101.776 52.85C102.756 51.7767 103.479 50.5167 103.946 49.07C104.459 47.6233 104.786 46.1533 104.926 44.66C105.066 43.1667 105.136 42 105.136 41.16C105.136 38.5467 104.739 36.5633 103.946 35.21C103.153 33.81 101.799 33.11 99.8859 33.11ZM135.209 63.7C131.615 63.7 128.769 63.1867 126.669 62.16C124.569 61.0867 122.982 59.7567 121.909 58.17C120.835 56.5833 120.159 54.88 119.879 53.06C119.599 51.1933 119.459 49.49 119.459 47.95C119.459 47.3433 119.505 46.1533 119.599 44.38C119.739 42.6067 119.902 40.5533 120.089 38.22C120.275 35.8867 120.462 33.4133 120.649 30.8C120.835 28.14 121.022 25.6433 121.209 23.31C121.395 20.93 121.535 18.83 121.629 17.01C121.769 15.19 121.839 13.93 121.839 13.23C121.839 12.2033 121.909 11.62 122.049 11.48C122.189 11.2933 122.609 11.2 123.309 11.2H126.039C127.439 11.2 128.605 11.3633 129.539 11.69C130.472 12.0167 131.219 12.46 131.779 13.02C132.339 13.58 132.735 14.2333 132.969 14.98C133.202 15.68 133.319 16.45 133.319 17.29C133.319 18.0833 133.225 19.6233 133.039 21.91C132.899 24.1967 132.712 26.88 132.479 29.96C133.692 27.86 135.069 26.32 136.609 25.34C138.149 24.3133 140.179 23.8 142.699 23.8C146.945 23.8 150.189 25.2 152.429 28C154.715 30.8 155.859 34.9767 155.859 40.53C155.859 41.9767 155.742 43.5633 155.509 45.29C155.322 47.0167 154.949 48.7433 154.389 50.47C153.875 52.15 153.129 53.8067 152.149 55.44C151.215 57.0267 149.979 58.4267 148.439 59.64C146.899 60.8533 145.032 61.8333 142.839 62.58C140.692 63.3267 138.149 63.7 135.209 63.7ZM138.359 33.11C136.679 33.11 135.349 33.5533 134.369 34.44C133.435 35.3267 132.712 36.4 132.199 37.66C131.685 38.92 131.359 40.2733 131.219 41.72C131.079 43.12 131.009 44.3567 131.009 45.43C131.009 48.65 131.452 50.96 132.339 52.36C133.225 53.7133 134.555 54.39 136.329 54.39C138.009 54.39 139.315 53.8767 140.249 52.85C141.229 51.7767 141.952 50.5167 142.419 49.07C142.932 47.6233 143.259 46.1533 143.399 44.66C143.539 43.1667 143.609 42 143.609 41.16C143.609 38.5467 143.212 36.5633 142.419 35.21C141.625 33.81 140.272 33.11 138.359 33.11ZM165.771 63.63C162.878 63.63 160.801 62.86 159.541 61.32C158.281 59.78 157.651 57.2367 157.651 53.69C157.651 53.13 157.675 52.43 157.721 51.59C157.815 50.75 157.908 49.6767 158.001 48.37C158.141 47.0167 158.305 45.36 158.491 43.4C158.678 41.44 158.865 39.06 159.051 36.26C159.285 33.46 159.518 30.17 159.751 26.39C160.031 22.61 160.311 18.2233 160.591 13.23C160.638 12.2033 160.755 11.5967 160.941 11.41C161.081 11.27 161.455 11.2 162.061 11.2H164.791C166.191 11.2 167.358 11.3633 168.291 11.69C169.225 12.0167 169.971 12.46 170.531 13.02C171.091 13.58 171.488 14.2333 171.721 14.98C171.955 15.68 172.071 16.4267 172.071 17.22C172.071 18.1533 172.001 19.5067 171.861 21.28C171.768 23.0067 171.628 24.9667 171.441 27.16C171.255 29.3533 171.068 31.64 170.881 34.02C170.695 36.4 170.508 38.6867 170.321 40.88C170.135 43.0267 169.971 44.9633 169.831 46.69C169.738 48.4167 169.691 49.7233 169.691 50.61C169.691 51.8233 169.901 52.6867 170.321 53.2C170.788 53.7133 171.278 54.0867 171.791 54.32C172.305 54.5067 172.771 54.6467 173.191 54.74C173.658 54.7867 173.891 54.9267 173.891 55.16C173.891 56.1867 173.775 57.2133 173.541 58.24C173.308 59.22 172.888 60.13 172.281 60.97C171.675 61.7633 170.835 62.4167 169.761 62.93C168.735 63.3967 167.405 63.63 165.771 63.63ZM188.644 30.94C188.644 32.0133 188.574 33.2967 188.434 34.79C188.294 36.2367 188.131 37.7067 187.944 39.2C187.804 40.6467 187.664 42.0233 187.524 43.33C187.384 44.59 187.314 45.57 187.314 46.27C187.314 48.0433 187.734 49.3733 188.574 50.26C189.461 51.1 190.534 51.52 191.794 51.52C193.988 51.52 195.738 50.3767 197.044 48.09C198.351 45.8033 199.168 42.77 199.494 38.99L200.614 25.9C200.661 25.3867 200.824 25.0367 201.104 24.85C201.431 24.6167 201.781 24.5 202.154 24.5H204.674C205.654 24.5 206.564 24.5933 207.404 24.78C208.291 24.92 209.061 25.2233 209.714 25.69C210.368 26.11 210.881 26.6933 211.254 27.44C211.628 28.1867 211.814 29.1433 211.814 30.31C211.814 30.7767 211.768 31.6633 211.674 32.97C211.628 34.23 211.511 36.0733 211.324 38.5C211.184 40.88 210.974 43.9133 210.694 47.6C210.414 51.24 210.088 55.6967 209.714 60.97C209.481 64.05 208.781 66.5933 207.614 68.6C206.494 70.6533 205.071 72.2633 203.344 73.43C201.618 74.6433 199.681 75.4833 197.534 75.95C195.388 76.4167 193.194 76.65 190.954 76.65C188.574 76.65 186.381 76.44 184.374 76.02C182.414 75.6 180.711 75.0167 179.264 74.27C177.818 73.5233 176.674 72.66 175.834 71.68C175.041 70.7 174.644 69.65 174.644 68.53C174.644 67.6433 174.831 66.8733 175.204 66.22C175.624 65.5667 176.161 65.03 176.814 64.61C177.468 64.19 178.214 63.8633 179.054 63.63C179.941 63.4433 180.851 63.35 181.784 63.35C182.251 63.35 182.578 63.5833 182.764 64.05C182.998 64.5167 183.324 65.03 183.744 65.59C184.211 66.1967 184.934 66.7333 185.914 67.2C186.894 67.6667 188.364 67.9 190.324 67.9C192.051 67.9 193.451 67.48 194.524 66.64C195.598 65.8 196.414 64.7267 196.974 63.42C197.581 62.1133 197.978 60.69 198.164 59.15C198.351 57.61 198.444 56.14 198.444 54.74C197.698 56.0467 196.858 57.12 195.924 57.96C195.038 58.7533 194.104 59.3833 193.124 59.85C192.144 60.27 191.164 60.55 190.184 60.69C189.204 60.83 188.271 60.9 187.384 60.9C185.658 60.9 184.071 60.6667 182.624 60.2C181.224 59.7333 180.011 58.9867 178.984 57.96C177.958 56.8867 177.164 55.51 176.604 53.83C176.044 52.15 175.764 50.12 175.764 47.74C175.764 46.8533 175.811 45.6867 175.904 44.24C175.998 42.7467 176.114 41.09 176.254 39.27C176.394 37.4033 176.534 35.3967 176.674 33.25C176.861 31.1033 177.048 28.91 177.234 26.67C177.328 25.2233 177.981 24.5 179.194 24.5H181.434C182.928 24.5 184.141 24.64 185.074 24.92C186.008 25.2 186.731 25.62 187.244 26.18C187.804 26.6933 188.178 27.37 188.364 28.21C188.551 29.0033 188.644 29.9133 188.644 30.94Z" fill="#507DC4"/>
<path d="M34.25 23.1V16.1H27.7129L27.2664 22.6218L34.25 23.1ZM31.59 61.95L24.6063 61.4718L24.6055 61.4844L31.59 61.95ZM21.37 61.46L26.1001 56.2999L26.1001 56.2999L21.37 61.46ZM19.76 53.9L12.7755 53.4344L12.7678 53.5505L12.7639 53.6668L19.76 53.9ZM20.11 49L27.0904 49.5235L27.0913 49.5108L20.11 49ZM20.53 42.84L13.5542 42.2587L13.5485 42.3263L13.5442 42.3941L20.53 42.84ZM21.09 36.12L28.0658 36.7013L28.0668 36.6895L21.09 36.12ZM21.58 29.33L14.6042 28.7487L14.5982 28.821L14.5936 28.8934L21.58 29.33ZM22.07 23.1L29.0513 23.6108L29.6009 16.1H22.07V23.1ZM10.1 22.12L3.11002 21.7455L3.1 21.9326V22.12H10.1ZM10.31 18.2L3.33062 17.6631L3.32438 17.7443L3.32002 17.8255L10.31 18.2ZM10.59 16.45L3.89955 14.3914L3.84445 14.5705L3.799 14.7522L10.59 16.45ZM12.83 13.72L9.8966 7.36428L9.7973 7.41011L9.69949 7.45901L12.83 13.72ZM47.06 13.51L43.4585 19.5124L43.4586 19.5125L47.06 13.51ZM47.41 14.28L54.394 14.7535L54.41 14.517V14.28H47.41ZM47.13 18.41L40.146 17.9365L40.1455 17.9444L47.13 18.41ZM45.94 21.84L40.4458 17.5025L40.4301 17.5224L40.4146 17.5424L45.94 21.84ZM34.25 23.1L27.2664 22.6218L24.6064 61.4718L31.59 61.95L38.5737 62.4282L41.2337 23.5782L34.25 23.1ZM31.59 61.95L24.6055 61.4844C24.6212 61.2485 24.7127 59.9683 25.7177 58.598C26.2738 57.8396 27.0619 57.1267 28.0817 56.6333C29.084 56.1483 30.0507 56 30.82 56V63V70C33.0875 70 35.4488 69.0023 37.0073 66.877C38.269 65.1567 38.5121 63.3515 38.5745 62.4156L31.59 61.95ZM30.82 63V56H26.97V63V70H30.82V63ZM26.97 63V56C26.0871 56 25.6258 55.9095 25.4661 55.8656C25.3178 55.8248 25.6482 55.8857 26.1001 56.2999L21.37 61.46L16.6399 66.6201C19.7073 69.4318 23.7665 70 26.97 70V63ZM21.37 61.46L26.1001 56.2999C26.2234 56.413 26.3411 56.5481 26.4426 56.699C26.5436 56.849 26.6102 56.9873 26.6514 57.0955C26.7323 57.3079 26.69 57.3338 26.69 57.05H19.69H12.69C12.69 60.3818 13.7163 63.94 16.6399 66.6201L21.37 61.46ZM19.69 57.05H26.69C26.69 56.471 26.71 55.516 26.7561 54.1332L19.76 53.9L12.7639 53.6668C12.7166 55.084 12.69 56.229 12.69 57.05H19.69ZM19.76 53.9L26.7445 54.3656C26.8362 52.9901 26.9514 51.3768 27.0904 49.5235L20.11 49L13.1296 48.4765C12.9886 50.3565 12.8705 52.0099 12.7755 53.4344L19.76 53.9ZM20.11 49L27.0913 49.5108C27.2331 47.573 27.3746 45.4978 27.5158 43.2859L20.53 42.84L13.5442 42.3941C13.4054 44.5688 13.2669 46.6003 13.1287 48.4892L20.11 49ZM20.53 42.84L27.5058 43.4213C27.6925 41.1813 27.8792 38.9413 28.0658 36.7013L21.09 36.12L14.1142 35.5387C13.9275 37.7787 13.7408 40.0187 13.5542 42.2587L20.53 42.84ZM21.09 36.12L28.0668 36.6895C28.257 34.3596 28.4235 32.0519 28.5664 29.7666L21.58 29.33L14.5936 28.8934C14.4565 31.0881 14.2963 33.3071 14.1132 35.5505L21.09 36.12ZM21.58 29.33L28.5558 29.9113C28.7441 27.6517 28.9094 25.5512 29.0513 23.6108L22.07 23.1L15.0887 22.5892C14.9506 24.4754 14.7892 26.5283 14.6042 28.7487L21.58 29.33ZM22.07 23.1V16.1H10.87V23.1V30.1H22.07V23.1ZM10.87 23.1V16.1C12.2025 16.1 14.2872 16.6091 15.7967 18.5302C17.0537 20.13 17.1 21.7205 17.1 22.12H10.1H3.1C3.1 23.1728 3.27463 25.2533 4.78827 27.1797C6.55445 29.4276 9.0242 30.1 10.87 30.1V23.1ZM10.1 22.12L17.09 22.4945L17.3 18.5745L10.31 18.2L3.32002 17.8255L3.11002 21.7455L10.1 22.12ZM10.31 18.2L17.2894 18.7369C17.3075 18.5008 17.3412 18.3069 17.381 18.1478L10.59 16.45L3.799 14.7522C3.55878 15.7131 3.40579 16.6859 3.33062 17.6631L10.31 18.2ZM10.59 16.45L17.2805 18.5086C17.2244 18.6907 17.1063 18.9501 16.8961 19.2129L11.43 14.84L5.96392 10.4671C5.00703 11.6632 4.3289 12.996 3.89955 14.3914L10.59 16.45ZM11.43 14.84L16.8961 19.2129C16.6065 19.5748 16.2623 19.8301 15.9605 19.981L12.83 13.72L9.69949 7.45901C8.27772 8.1699 7.00016 9.17184 5.96392 10.4671L11.43 14.84ZM12.83 13.72L15.7634 20.0757C15.2457 20.3146 14.9202 20.3 15 20.3V13.3V6.3C13.3998 6.3 11.6276 6.56534 9.8966 7.36428L12.83 13.72ZM15 13.3V20.3H46.29V13.3V6.3H15V13.3ZM46.29 13.3V20.3C45.3399 20.3 44.3457 20.0448 43.4585 19.5124L47.06 13.51L50.6615 7.50756C49.3076 6.69523 47.8001 6.3 46.29 6.3V13.3ZM47.06 13.51L43.4586 19.5125C42.3121 18.8246 41.4565 17.8185 40.9499 16.7041C40.4838 15.6785 40.41 14.7841 40.41 14.28H47.41H54.41C54.41 12.4707 53.753 9.36246 50.6614 7.50753L47.06 13.51ZM47.41 14.28L40.426 13.8065L40.146 17.9365L47.13 18.41L54.114 18.8835L54.394 14.7535L47.41 14.28ZM47.13 18.41L40.1455 17.9444C40.1339 18.1177 40.1132 18.1268 40.1492 18.0231C40.1889 17.9088 40.2778 17.7153 40.4458 17.5025L45.94 21.84L51.4342 26.1775C53.2026 23.9375 53.95 21.3432 54.1145 18.8756L47.13 18.41ZM45.94 21.84L40.4146 17.5424C41.2376 16.4842 42.1602 16.1551 42.3749 16.0897C42.5764 16.0282 42.4549 16.1 41.81 16.1V23.1V30.1C44.1604 30.1 48.6415 29.7684 51.4655 26.1376L45.94 21.84ZM41.81 23.1V16.1H34.25V23.1V30.1H41.81V23.1ZM55.3233 34.58L48.3617 33.8472L48.3522 33.938L48.345 34.0291L55.3233 34.58ZM54.8333 40.11L47.8664 39.4303L47.8581 39.5146L47.8519 39.5992L54.8333 40.11ZM54.3433 45.5L47.3861 44.727L47.3755 44.8227L47.3675 44.9187L54.3433 45.5ZM55.3233 52.99L49.9897 57.5235L50.1119 57.6673L50.2416 57.8042L55.3233 52.99ZM61.9033 52.85L56.6055 48.2747L56.597 48.2845L56.5885 48.2945L61.9033 52.85ZM64.0033 48.93L57.3817 46.6597L57.3619 46.7173L57.3432 46.7753L64.0033 48.93ZM65.3333 43.4L72.2463 44.4998L65.3333 43.4ZM66.0333 37.17L59.0608 36.5502L59.0539 36.6272L59.0488 36.7044L66.0333 37.17ZM66.4533 31.08L59.4703 30.5928L59.4649 30.6699L59.4612 30.747L66.4533 31.08ZM66.8733 25.9L59.9273 25.0317L59.9152 25.1286L59.9058 25.2257L66.8733 25.9ZM74.4333 24.99L72.0134 31.5584L72.2155 31.6329L72.4218 31.6948L74.4333 24.99ZM76.6033 26.25L71.4432 30.9801L71.546 31.0922L71.6535 31.1997L76.6033 26.25ZM77.7233 28.35L70.89 29.8685L70.9412 30.0988L71.0077 30.3252L77.7233 28.35ZM77.9333 34.16L70.9511 33.6613L70.9425 33.781L70.9381 33.9009L77.9333 34.16ZM77.5833 39.48L84.5591 40.0613L84.5601 40.0495L77.5833 39.48ZM76.8833 48.09L69.9056 47.5318L69.9021 47.5749L69.8992 47.6181L76.8833 48.09ZM75.9733 60.97L82.9417 61.6337L82.9492 61.5558L82.9548 61.4777L75.9733 60.97ZM75.6233 62.72L70.0233 58.52L69.6446 59.025L69.3623 59.5895L75.6233 62.72ZM68.2733 62.51L65.8533 69.0784L65.9069 69.0981L65.9608 69.117L68.2733 62.51ZM66.1033 61.25L70.8334 56.0899L70.8334 56.0899L66.1033 61.25ZM64.9133 59.43L71.5541 57.2164L64.9133 59.43ZM64.4933 57.26L71.4797 56.8234L70.0315 33.6527L58.43 53.7619L64.4933 57.26ZM62.1133 60.34L57.2991 55.2583L57.2304 55.3234L57.1635 55.3903L62.1133 60.34ZM59.4533 62.37L62.5838 68.631L62.7065 68.5696L62.8267 68.5035L59.4533 62.37ZM56.5833 63.35L55.2735 56.4736L55.117 56.5034L54.9619 56.5404L56.5833 63.35ZM48.9533 62.86L46.17 69.2829L46.2612 69.3224L46.3535 69.3593L48.9533 62.86ZM45.3833 60.48L40.3143 65.3076L40.3732 65.3694L40.4335 65.4297L45.3833 60.48ZM43.2133 56.98L49.7583 54.4974L43.2133 56.98ZM42.5133 49.7L35.5288 49.2344L35.5213 49.3465L35.5174 49.4588L42.5133 49.7ZM42.7933 45.01L35.8162 44.4443L35.8086 44.5381L35.8035 44.6322L42.7933 45.01ZM43.2133 39.55L50.1946 40.0608L50.1955 40.0487L43.2133 39.55ZM43.5633 34.02L36.5862 33.4543L36.5786 33.5481L36.5735 33.6422L43.5633 34.02ZM43.9133 29.47L36.9531 28.7243L36.9399 28.8476L36.9311 28.9713L43.9133 29.47ZM44.1933 26.67L37.2361 25.897L37.2255 25.9927L37.2175 26.0887L44.1933 26.67ZM44.7533 24.99L49.703 29.9397L49.8931 29.7496L50.0681 29.5455L44.7533 24.99ZM54.1333 26.11L49.1835 31.0597L49.2911 31.1673L49.4032 31.2701L54.1333 26.11ZM55.2533 28L48.4623 29.6978L48.5275 29.9586L48.6125 30.2136L55.2533 28ZM55.6033 30.45H48.6033C48.6033 31.0634 48.5399 32.1549 48.3617 33.8472L55.3233 34.58L62.2848 35.3128C62.48 33.4584 62.6033 31.7966 62.6033 30.45H55.6033ZM55.3233 34.58L48.345 34.0291C48.2086 35.7562 48.0492 37.5565 47.8664 39.4303L54.8333 40.11L61.8002 40.7897C61.9907 38.8369 62.1579 36.9505 62.3016 35.1309L55.3233 34.58ZM54.8333 40.11L47.8519 39.5992C47.7175 41.4364 47.5619 43.1449 47.3861 44.727L54.3433 45.5L61.3005 46.273C61.498 44.4951 61.669 42.6103 61.8146 40.6208L54.8333 40.11ZM54.3433 45.5L47.3675 44.9187C47.2262 46.6137 47.1333 48.0783 47.1333 49.14H54.1333H61.1333C61.1333 48.7084 61.1804 47.7463 61.3191 46.0813L54.3433 45.5ZM54.1333 49.14H47.1333C47.1333 51.8756 47.807 54.9556 49.9897 57.5235L55.3233 52.99L60.6569 48.4565C60.9309 48.7788 61.0643 49.0847 61.1186 49.2604C61.1662 49.4145 61.1333 49.4016 61.1333 49.14H54.1333ZM55.3233 52.99L50.2416 57.8042C52.6465 60.3427 55.7688 61.32 58.7533 61.32V54.32V47.32C58.743 47.32 58.9752 47.3189 59.3415 47.461C59.7324 47.6126 60.109 47.8634 60.405 48.1758L55.3233 52.99ZM58.7533 54.32V61.32C62.1133 61.32 65.0855 59.8936 67.2181 57.4055L61.9033 52.85L56.5885 48.2945C56.7428 48.1144 57.0494 47.8315 57.5256 47.6092C58.0063 47.3849 58.4511 47.32 58.7533 47.32V54.32ZM61.9033 52.85L67.201 57.4253C68.8219 55.5486 69.9264 53.3629 70.6634 51.0847L64.0033 48.93L57.3432 46.7753C57.0535 47.6705 56.758 48.0981 56.6055 48.2747L61.9033 52.85ZM64.0033 48.93L70.6249 51.2003C71.3388 49.1182 71.8687 46.8734 72.2463 44.4998L65.3333 43.4L58.4202 42.3002C58.1445 44.0332 57.7878 45.4751 57.3817 46.6597L64.0033 48.93ZM65.3333 43.4L72.2463 44.4998C72.6069 42.2337 72.8638 39.9454 73.0178 37.6356L66.0333 37.17L59.0488 36.7044C58.9228 38.5946 58.713 40.4596 58.4202 42.3002L65.3333 43.4ZM66.0333 37.17L73.0058 37.7898C73.2003 35.6013 73.3471 33.4754 73.4454 31.413L66.4533 31.08L59.4612 30.747C59.3728 32.6046 59.2396 34.5387 59.0608 36.5502L66.0333 37.17ZM66.4533 31.08L73.4363 31.5672C73.5735 29.6012 73.7085 27.9402 73.8407 26.5743L66.8733 25.9L59.9058 25.2257C59.758 26.7531 59.6131 28.5455 59.4703 30.5928L66.4533 31.08ZM66.8733 25.9L73.8192 26.7683C73.7053 27.6793 73.3241 28.6174 72.6708 29.4013L67.2933 24.92L61.9157 20.4387C60.7958 21.7826 60.1346 23.3741 59.9273 25.0317L66.8733 25.9ZM67.2933 24.92L72.6708 29.4013C71.096 31.2911 69.0923 31.5 68.4133 31.5V24.5V17.5C66.7076 17.5 63.9572 17.9889 61.9157 20.4387L67.2933 24.92ZM68.4133 24.5V31.5H70.9333V24.5V17.5H68.4133V24.5ZM70.9333 24.5V31.5C71.402 31.5 71.7236 31.527 71.9228 31.5549C72.1269 31.5835 72.1369 31.6039 72.0134 31.5584L74.4333 24.99L76.8532 18.4216C74.8939 17.6998 72.8141 17.5 70.9333 17.5V24.5ZM74.4333 24.99L72.4218 31.6948C72.4824 31.713 71.9914 31.5781 71.4432 30.9801L76.6033 26.25L81.7634 21.5199C80.1885 19.8019 78.2508 18.827 76.4447 18.2852L74.4333 24.99ZM76.6033 26.25L71.6535 31.1997C71.4443 30.9905 71.2646 30.7474 71.1268 30.4891C70.9911 30.2346 70.9226 30.0154 70.89 29.8685L77.7233 28.35L84.5566 26.8315C84.1071 24.8089 83.1357 22.8829 81.553 21.3002L76.6033 26.25ZM77.7233 28.35L71.0077 30.3252C71.006 30.3191 71.0733 30.5578 71.0733 31.15H78.0733H85.0733C85.0733 29.5955 84.9073 27.9675 84.4388 26.3748L77.7233 28.35ZM78.0733 31.15H71.0733C71.0733 31.5978 71.0408 32.4044 70.9511 33.6613L77.9333 34.16L84.9155 34.6587C85.0124 33.3022 85.0733 32.1022 85.0733 31.15H78.0733ZM77.9333 34.16L70.9381 33.9009C70.8972 35.0058 70.7903 36.6583 70.6065 38.9105L77.5833 39.48L84.5601 40.0495C84.7496 37.7284 84.8761 35.8342 84.9285 34.4191L77.9333 34.16ZM77.5833 39.48L70.6075 38.8987C70.4199 41.1494 70.1859 44.0278 69.9056 47.5318L76.8833 48.09L83.861 48.6482C84.1407 45.1522 84.3733 42.2906 84.5591 40.0613L77.5833 39.48ZM76.8833 48.09L69.8992 47.6181C69.667 51.0553 69.3646 55.3357 68.9917 60.4622L75.9733 60.97L82.9548 61.4777C83.3287 56.3376 83.6329 52.0314 83.8674 48.5619L76.8833 48.09ZM75.9733 60.97L69.0048 60.3063C68.9682 60.6905 68.9428 60.8141 68.9517 60.7697C68.9559 60.7489 68.9919 60.5656 69.0831 60.292C69.1305 60.1498 69.2114 59.9268 69.338 59.657C69.4583 59.4009 69.6738 58.986 70.0233 58.52L75.6233 62.72L81.2233 66.92C81.9244 65.9851 82.2431 65.0838 82.3647 64.7192C82.5201 64.2531 82.6174 63.8277 82.6798 63.5153C82.8054 62.8876 82.885 62.2295 82.9417 61.6337L75.9733 60.97ZM75.6233 62.72L69.3623 59.5895C70.0901 58.1338 71.157 57.2854 71.8993 56.8401C72.622 56.4065 73.2525 56.2197 73.5755 56.139C73.9262 56.0513 74.1888 56.022 74.307 56.0112C74.3748 56.0051 74.4253 56.0024 74.4554 56.0012C74.4859 56 74.5024 56 74.5033 56V63V70C75.0643 70 75.9763 69.9697 76.971 69.721C77.5934 69.5654 80.3942 68.8306 81.8843 65.8505L75.6233 62.72ZM74.5033 63V56H71.7733V63V70H74.5033V63ZM71.7733 63V56C71.3394 56 71.0274 55.9743 70.8188 55.9451C70.6085 55.9157 70.5437 55.8883 70.5857 55.903L68.2733 62.51L65.9608 69.117C67.8762 69.7874 69.8865 70 71.7733 70V63ZM68.2733 62.51L70.6932 55.9416C70.5812 55.9003 70.5514 55.8795 70.5807 55.8965C70.6118 55.9145 70.7065 55.9736 70.8334 56.0899L66.1033 61.25L61.3732 66.4101C62.7463 67.6687 64.3138 68.5112 65.8533 69.0784L68.2733 62.51ZM66.1033 61.25L70.8334 56.0899C70.9629 56.2086 71.1086 56.3712 71.2446 56.5793C71.3812 56.7882 71.484 57.0063 71.5541 57.2164L64.9133 59.43L58.2725 61.6436C58.8934 63.5064 59.9633 65.1177 61.3732 66.4101L66.1033 61.25ZM64.9133 59.43L71.5541 57.2164C71.515 57.0993 71.489 56.9737 71.4797 56.8234L64.4933 57.26L57.5069 57.6966C57.5908 59.0396 57.8449 60.3607 58.2725 61.6436L64.9133 59.43ZM64.4933 57.26L58.43 53.7619C58.0192 54.474 57.6292 54.9455 57.2991 55.2583L62.1133 60.34L66.9275 65.4217C68.3706 64.0545 69.5674 62.4726 70.5566 60.7581L64.4933 57.26ZM62.1133 60.34L57.1635 55.3903C56.7374 55.8163 56.3723 56.0757 56.0799 56.2365L59.4533 62.37L62.8267 68.5035C64.401 67.6377 65.8091 66.5437 67.063 65.2897L62.1133 60.34ZM59.4533 62.37L56.3228 56.109C55.9386 56.3011 55.5927 56.4128 55.2735 56.4736L56.5833 63.35L57.8931 70.2264C59.5339 69.9138 61.1013 69.3722 62.5838 68.631L59.4533 62.37ZM56.5833 63.35L54.9619 56.5404C54.4714 56.6572 54.0593 56.7 53.7133 56.7V63.7V70.7C55.2339 70.7 56.7352 70.5095 58.2046 70.1596L56.5833 63.35ZM53.7133 63.7V56.7C52.6764 56.7 51.9942 56.5372 51.553 56.3607L48.9533 62.86L46.3535 69.3593C48.7123 70.3028 51.2035 70.7 53.7133 70.7V63.7ZM48.9533 62.86L51.7365 56.4371C51.0633 56.1454 50.63 55.8272 50.333 55.5303L45.3833 60.48L40.4335 65.4297C42.0965 67.0928 44.0433 68.3613 46.17 69.2829L48.9533 62.86ZM45.3833 60.48L50.4522 55.6524C50.206 55.3939 49.9641 55.0399 49.7583 54.4974L43.2133 56.98L36.6683 59.4626C37.4892 61.6267 38.6938 63.6061 40.3143 65.3076L45.3833 60.48ZM43.2133 56.98L49.7583 54.4974C49.5646 53.9868 49.4433 53.3865 49.4433 52.64H42.4433H35.4433C35.4433 54.9735 35.8353 57.2665 36.6683 59.4626L43.2133 56.98ZM42.4433 52.64H49.4433C49.4433 52.1634 49.4627 51.2872 49.5091 49.9412L42.5133 49.7L35.5174 49.4588C35.4705 50.8195 35.4433 51.9033 35.4433 52.64H42.4433ZM42.5133 49.7L49.4978 50.1656C49.5934 48.7306 49.6885 47.1374 49.7831 45.3878L42.7933 45.01L35.8035 44.6322C35.7114 46.336 35.6198 47.8694 35.5288 49.2344L42.5133 49.7ZM42.7933 45.01L49.7704 45.5757C49.912 43.8289 50.0534 41.9905 50.1946 40.0608L43.2133 39.55L36.2319 39.0392C36.0931 40.9361 35.9545 42.7377 35.8162 44.4443L42.7933 45.01ZM43.2133 39.55L50.1955 40.0487C50.338 38.0538 50.4573 36.1698 50.5531 34.3978L43.5633 34.02L36.5735 33.6422C36.4826 35.3235 36.3686 37.1262 36.2311 39.0513L43.2133 39.55ZM43.5633 34.02L50.5404 34.5857C50.6817 32.8433 50.8002 31.3035 50.8955 29.9687L43.9133 29.47L36.9311 28.9713C36.8397 30.2498 36.7249 31.7433 36.5862 33.4543L43.5633 34.02ZM43.9133 29.47L50.8734 30.2157C51.0137 28.907 51.1149 27.9014 51.1691 27.2513L44.1933 26.67L37.2175 26.0887C37.1783 26.5586 37.0929 27.4196 36.9531 28.7243L43.9133 29.47ZM44.1933 26.67L51.1505 27.443C51.1639 27.322 51.1575 27.4933 51.0441 27.8336C50.9485 28.1203 50.6155 29.0273 49.703 29.9397L44.7533 24.99L39.8035 20.0403C38.6111 21.2327 38.0447 22.5597 37.7625 23.4064C37.4624 24.3067 37.316 25.178 37.2361 25.897L44.1933 26.67ZM44.7533 24.99L50.0681 29.5455C48.4527 31.4302 46.4755 31.5 46.1533 31.5V24.5V17.5C44.5244 17.5 41.6139 17.8965 39.4385 20.4344L44.7533 24.99ZM46.1533 24.5V31.5H48.3933V24.5V17.5H46.1533V24.5ZM48.3933 24.5V31.5C48.8972 31.5 49.2781 31.5247 49.5529 31.5571C49.6881 31.573 49.7882 31.5896 49.8569 31.6032C49.9258 31.6168 49.9555 31.6259 49.9519 31.6248L51.9633 24.92L53.9747 18.2152C52.1555 17.6694 50.225 17.5 48.3933 17.5V24.5ZM51.9633 24.92L49.9519 31.6248C50.1398 31.6812 49.7216 31.5978 49.1835 31.0597L54.1333 26.11L59.083 21.1603C57.5183 19.5955 55.6534 18.7188 53.9747 18.2152L51.9633 24.92ZM54.1333 26.11L49.4032 31.2701C49.1959 31.08 48.9877 30.834 48.8112 30.5361C48.6351 30.2389 48.5249 29.9483 48.4623 29.6978L55.2533 28L62.0443 26.3022C61.5295 24.243 60.4488 22.4033 58.8633 20.9499L54.1333 26.11ZM55.2533 28L48.6125 30.2136C48.5819 30.1218 48.5803 30.0869 48.5861 30.1274C48.592 30.1686 48.6033 30.2723 48.6033 30.45H55.6033H62.6033C62.6033 28.9542 62.4187 27.3604 61.8941 25.7864L55.2533 28ZM88.1959 62.16L85.0102 68.393L85.0656 68.4214L85.1215 68.4487L88.1959 62.16ZM83.4359 58.17L89.2339 54.2478L83.4359 58.17ZM81.4059 53.06L74.4834 54.0984L74.4853 54.1114L74.4873 54.1244L81.4059 53.06ZM81.1259 44.38L74.1477 43.8291L74.1404 43.9205L74.1356 44.0121L81.1259 44.38ZM81.6159 38.22L88.5936 38.7782L81.6159 38.22ZM82.1759 30.8L89.1582 31.2987L89.1588 31.29L82.1759 30.8ZM82.7359 23.31L89.7137 23.8682L89.7145 23.8573L82.7359 23.31ZM83.1559 17.01L76.1766 16.4731L76.1697 16.5622L76.1651 16.6515L83.1559 17.01ZM83.5759 11.48L88.5257 16.4297L88.8774 16.078L89.1759 15.68L83.5759 11.48ZM91.0659 11.69L93.3784 5.08299L93.3784 5.08299L91.0659 11.69ZM93.3059 13.02L98.2557 8.07026L98.2557 8.07024L93.3059 13.02ZM94.4959 14.98L87.8146 17.0679L87.8343 17.1309L87.8552 17.1936L94.4959 14.98ZM94.5659 21.91L87.5891 21.3405L87.5834 21.4113L87.579 21.4822L94.5659 21.91ZM94.0059 29.96L87.0259 29.4312L100.067 33.4619L94.0059 29.96ZM98.1359 25.34L101.894 31.2456L101.957 31.2057L102.019 31.1644L98.1359 25.34ZM113.956 28L108.49 32.3729L108.512 32.4004L108.534 32.4277L113.956 28ZM117.036 45.29L110.099 44.3526L110.087 44.445L110.076 44.5376L117.036 45.29ZM115.916 50.47L109.257 48.3105L109.239 48.3673L109.221 48.4245L115.916 50.47ZM113.676 55.44L107.673 51.8385L107.658 51.8646L107.642 51.8909L113.676 55.44ZM109.966 59.64L114.298 65.1384L109.966 59.64ZM104.366 62.58L102.11 55.9534L102.088 55.9609L102.066 55.9685L104.366 62.58ZM95.8959 34.44L91.1995 29.2492L91.1364 29.3064L91.0747 29.365L95.8959 34.44ZM93.7259 37.66L100.209 40.3011V40.3011L93.7259 37.66ZM92.7459 41.72L99.7112 42.4165L99.7123 42.4054L99.7134 42.3943L92.7459 41.72ZM93.8659 52.36L87.9522 56.1054L87.9811 56.151L88.0107 56.1962L93.8659 52.36ZM101.776 52.85L96.6065 48.1301L96.6014 48.1357L96.5964 48.1413L101.776 52.85ZM103.946 49.07L97.3489 46.7291L97.3151 46.8246L97.284 46.921L103.946 49.07ZM104.926 44.66L111.895 45.3134V45.3134L104.926 44.66ZM103.946 35.21L97.8558 38.6611L97.8811 38.7057L97.9071 38.75L103.946 35.21ZM96.7359 63.7V56.7C93.6899 56.7 92.0365 56.2459 91.2704 55.8713L88.1959 62.16L85.1215 68.4487C88.5553 70.1275 92.5953 70.7 96.7359 70.7V63.7ZM88.1959 62.16L91.3817 55.927C90.093 55.2683 89.509 54.6545 89.2339 54.2478L83.4359 58.17L77.638 62.0922C79.5095 64.8588 82.0988 66.905 85.0102 68.393L88.1959 62.16ZM83.4359 58.17L89.2339 54.2478C88.7169 53.4836 88.4406 52.7503 88.3245 51.9956L81.4059 53.06L74.4873 54.1244C74.9312 57.0097 76.0083 59.6831 77.638 62.0922L83.4359 58.17ZM81.4059 53.06L88.3285 52.0216C88.089 50.4251 87.9859 49.0752 87.9859 47.95H80.9859H73.9859C73.9859 49.9048 74.1629 51.9615 74.4834 54.0984L81.4059 53.06ZM80.9859 47.95H87.9859C87.9859 47.5569 88.0215 46.5485 88.1163 44.7479L81.1259 44.38L74.1356 44.0121C74.0437 45.7581 73.9859 47.1297 73.9859 47.95H80.9859ZM81.1259 44.38L88.1042 44.9309C88.244 43.1606 88.4071 41.1098 88.5936 38.7782L81.6159 38.22L74.6382 37.6618C74.4514 39.9968 74.2879 42.0527 74.1477 43.8291L81.1259 44.38ZM81.6159 38.22L88.5936 38.7782C88.7821 36.4229 88.9702 33.9296 89.1581 31.2987L82.1759 30.8L75.1937 30.3013C75.0083 32.8971 74.8231 35.3504 74.6382 37.6618L81.6159 38.22ZM82.1759 30.8L89.1588 31.29C89.344 28.6497 89.529 26.176 89.7136 23.8682L82.7359 23.31L75.7582 22.7518C75.5695 25.1107 75.3812 27.6303 75.1931 30.31L82.1759 30.8ZM82.7359 23.31L89.7145 23.8573C89.9047 21.4325 90.0494 19.2673 90.1468 17.3685L83.1559 17.01L76.1651 16.6515C76.0758 18.3927 75.9405 20.4275 75.7574 22.7627L82.7359 23.31ZM83.1559 17.01L90.1353 17.5469C90.2741 15.7431 90.3659 14.2334 90.3659 13.23H83.3659H76.3659C76.3659 13.6266 76.3178 14.6369 76.1766 16.4731L83.1559 17.01ZM83.3659 13.23H90.3659C90.3659 12.8227 90.3824 12.741 90.3686 12.8565C90.3628 12.9044 90.328 13.2013 90.2065 13.6198C90.1437 13.836 90.026 14.1965 89.8167 14.6251C89.6202 15.0275 89.2296 15.7258 88.5257 16.4297L83.5759 11.48L78.6262 6.53027C77.299 7.85747 76.8697 9.34413 76.7616 9.71646C76.5876 10.3158 76.509 10.849 76.4683 11.1885C76.3844 11.8874 76.3659 12.6107 76.3659 13.23H83.3659ZM83.5759 11.48L89.1759 15.68C88.3753 16.7476 87.4491 17.3259 86.8639 17.6185C86.2716 17.9146 85.7759 18.0452 85.5144 18.1033C85.0145 18.2144 84.7214 18.2 84.8359 18.2V11.2V4.2C84.2505 4.2 83.3974 4.23225 82.4774 4.43669C81.8531 4.57543 79.6037 5.10967 77.976 7.27996L83.5759 11.48ZM84.8359 11.2V18.2H87.5659V11.2V4.2H84.8359V11.2ZM87.5659 11.2V18.2C87.9998 18.2 88.3118 18.2257 88.5204 18.2549C88.7307 18.2843 88.7956 18.3117 88.7535 18.297L91.0659 11.69L93.3784 5.08299C91.4631 4.41262 89.4528 4.2 87.5659 4.2V11.2ZM91.0659 11.69L88.7535 18.297C88.9349 18.3605 88.701 18.3145 88.3562 17.9698L93.3059 13.02L98.2557 8.07024C96.7909 6.60547 95.0636 5.67282 93.3784 5.08299L91.0659 11.69ZM93.3059 13.02L88.3562 17.9697C88.2545 17.8681 88.1426 17.732 88.0399 17.5628C87.937 17.3934 87.8631 17.2232 87.8146 17.0679L94.4959 14.98L101.177 12.8921C100.602 11.0517 99.6054 9.41992 98.2557 8.07026L93.3059 13.02ZM94.4959 14.98L87.8552 17.1936C87.8385 17.1437 87.8357 17.12 87.8374 17.1311C87.8393 17.1432 87.8459 17.1939 87.8459 17.29H94.8459H101.846C101.846 15.8002 101.638 14.2713 101.137 12.7664L94.4959 14.98ZM94.8459 17.29H87.8459C87.8459 17.7532 87.7791 19.0141 87.5891 21.3405L94.5659 21.91L101.543 22.4795C101.726 20.2326 101.846 18.4134 101.846 17.29H94.8459ZM94.5659 21.91L87.579 21.4822C87.4417 23.726 87.2575 26.3741 87.0259 29.4312L94.0059 29.96L100.986 30.4888C101.221 27.3859 101.41 24.6674 101.553 22.3378L94.5659 21.91ZM94.0059 29.96L100.067 33.4619C100.895 32.0291 101.564 31.4557 101.894 31.2456L98.1359 25.34L94.3778 19.4344C91.6279 21.1843 89.5437 23.6909 87.9449 26.4581L94.0059 29.96ZM98.1359 25.34L102.019 31.1644C102.062 31.1356 102.602 30.8 104.226 30.8V23.8V16.8C100.81 16.8 97.2899 17.4911 94.253 19.5156L98.1359 25.34ZM104.226 23.8V30.8C106.783 30.8 107.829 31.5472 108.49 32.3729L113.956 28L119.422 23.6271C115.603 18.8528 110.162 16.8 104.226 16.8V23.8ZM113.956 28L108.534 32.4277C109.379 33.4621 110.386 35.7672 110.386 40.53H117.386H124.386C124.386 34.1861 123.106 28.1379 119.378 23.5723L113.956 28ZM117.386 40.53H110.386C110.386 41.6075 110.299 42.8761 110.099 44.3526L117.036 45.29L123.973 46.2274C124.24 44.2505 124.386 42.3458 124.386 40.53H117.386ZM117.036 45.29L110.076 44.5376C109.944 45.7651 109.676 47.0207 109.257 48.3105L115.916 50.47L122.575 52.6295C123.276 50.466 123.755 48.2682 123.995 46.0424L117.036 45.29ZM115.916 50.47L109.221 48.4245C108.888 49.5159 108.385 50.653 107.673 51.8385L113.676 55.44L119.678 59.0415C120.927 56.9604 121.917 54.7841 122.61 52.5155L115.916 50.47ZM113.676 55.44L107.642 51.8909C107.178 52.68 106.535 53.4313 105.634 54.1416L109.966 59.64L114.298 65.1384C116.477 63.4221 118.307 61.3734 119.709 58.9891L113.676 55.44ZM109.966 59.64L105.634 54.1416C104.819 54.7838 103.686 55.4171 102.11 55.9534L104.366 62.58L106.622 69.2066C109.433 68.2496 112.033 66.9229 114.298 65.1384L109.966 59.64ZM104.366 62.58L102.066 55.9685C100.84 56.3951 99.1108 56.7 96.7359 56.7V63.7V70.7C100.241 70.7 103.599 70.2583 106.666 69.1915L104.366 62.58ZM99.8859 33.11V26.11C96.9574 26.11 93.7871 26.9082 91.1995 29.2492L95.8959 34.44L100.592 39.6307C100.321 39.8764 100.039 40.0176 99.842 40.0833C99.6679 40.1413 99.6536 40.11 99.8859 40.11V33.11ZM95.8959 34.44L91.0747 29.365C89.3805 30.9745 88.1097 32.8923 87.2433 35.0189L93.7259 37.66L100.209 40.3011C100.369 39.9077 100.545 39.6788 100.717 39.515L95.8959 34.44ZM93.7259 37.66L87.2433 35.0189C86.457 36.949 85.9794 38.9695 85.7785 41.0457L92.7459 41.72L99.7134 42.3943C99.7925 41.5772 99.9683 40.891 100.209 40.3011L93.7259 37.66ZM92.7459 41.72L85.7807 41.0235C85.6242 42.5883 85.5359 44.0656 85.5359 45.43H92.5359H99.5359C99.5359 44.6478 99.5877 43.6517 99.7112 42.4165L92.7459 41.72ZM92.5359 45.43H85.5359C85.5359 48.9331 85.9517 52.9467 87.9522 56.1054L93.8659 52.36L99.7797 48.6146C99.9584 48.8969 99.8632 48.8846 99.743 48.2581C99.6289 47.6637 99.5359 46.7469 99.5359 45.43H92.5359ZM93.8659 52.36L88.0107 56.1962C90.3315 59.7385 93.9909 61.39 97.8559 61.39V54.39V47.39C97.866 47.39 98.2154 47.3957 98.7026 47.6436C99.2162 47.9048 99.5537 48.2681 99.7212 48.5238L93.8659 52.36ZM97.8559 54.39V61.39C101.058 61.39 104.42 60.3478 106.956 57.5587L101.776 52.85L96.5964 48.1413C96.8615 47.8496 97.2015 47.6213 97.5364 47.4897C97.8416 47.3698 97.9882 47.39 97.8559 47.39V54.39ZM101.776 52.85L106.945 57.5699C108.632 55.7224 109.848 53.5749 110.608 51.219L103.946 49.07L97.284 46.921C97.1106 47.4585 96.8797 47.831 96.6065 48.1301L101.776 52.85ZM103.946 49.07L110.543 51.4109C111.245 49.4321 111.7 47.3959 111.895 45.3134L104.926 44.66L97.9565 44.0066C97.8717 44.9108 97.6735 45.8146 97.3489 46.7291L103.946 49.07ZM104.926 44.66L111.895 45.3134C112.043 43.7428 112.136 42.324 112.136 41.16H105.136H98.1359C98.1359 41.676 98.0893 42.5905 97.9565 44.0066L104.926 44.66ZM105.136 41.16H112.136C112.136 38.0382 111.697 34.591 109.985 31.67L103.946 35.21L97.9071 38.75C97.8149 38.5929 97.8868 38.6475 97.9744 39.0853C98.0606 39.5163 98.1359 40.1884 98.1359 41.16H105.136ZM103.946 35.21L110.036 31.7589C107.744 27.7136 103.754 26.11 99.8859 26.11V33.11V40.11C100.003 40.11 99.6593 40.1315 99.12 39.8525C98.5213 39.5429 98.0891 39.0728 97.8558 38.6611L103.946 35.21ZM126.669 62.16L123.483 68.393L123.538 68.4214L123.594 68.4487L126.669 62.16ZM121.909 58.17L127.707 54.2478L121.909 58.17ZM119.879 53.06L112.956 54.0984L112.958 54.1114L112.96 54.1244L119.879 53.06ZM119.599 44.38L112.62 43.8291L112.613 43.9205L112.608 44.0121L119.599 44.38ZM120.089 38.22L127.066 38.7782L120.089 38.22ZM120.649 30.8L127.631 31.2987L127.631 31.29L120.649 30.8ZM121.209 23.31L128.186 23.8682L128.187 23.8573L121.209 23.31ZM121.629 17.01L114.649 16.4731L114.642 16.5622L114.638 16.6515L121.629 17.01ZM122.049 11.48L126.998 16.4297L127.35 16.078L127.649 15.68L122.049 11.48ZM129.539 11.69L131.851 5.08299L131.851 5.08299L129.539 11.69ZM131.779 13.02L136.728 8.07026L136.728 8.07024L131.779 13.02ZM132.969 14.98L126.287 17.0679L126.307 17.1309L126.328 17.1936L132.969 14.98ZM133.039 21.91L126.062 21.3405L126.056 21.4113L126.052 21.4822L133.039 21.91ZM132.479 29.96L125.499 29.4312L138.54 33.4619L132.479 29.96ZM136.609 25.34L140.367 31.2456L140.43 31.2057L140.491 31.1644L136.609 25.34ZM152.429 28L146.963 32.3729L146.985 32.4004L147.007 32.4277L152.429 28ZM155.509 45.29L148.572 44.3526L148.559 44.445L148.549 44.5376L155.509 45.29ZM154.389 50.47L147.73 48.3105L147.712 48.3673L147.694 48.4245L154.389 50.47ZM152.149 55.44L146.146 51.8385L146.13 51.8646L146.115 51.8909L152.149 55.44ZM148.439 59.64L152.771 65.1384L148.439 59.64ZM142.839 62.58L140.583 55.9534L140.561 55.9609L140.539 55.9685L142.839 62.58ZM134.369 34.44L129.672 29.2492L129.609 29.3064L129.547 29.365L134.369 34.44ZM132.199 37.66L138.681 40.3011V40.3011L132.199 37.66ZM131.219 41.72L138.184 42.4165L138.185 42.4054L138.186 42.3943L131.219 41.72ZM132.339 52.36L126.425 56.1054L126.454 56.151L126.483 56.1962L132.339 52.36ZM140.249 52.85L135.079 48.1301L135.074 48.1357L135.069 48.1413L140.249 52.85ZM142.419 49.07L135.822 46.7291L135.788 46.8246L135.757 46.921L142.419 49.07ZM143.399 44.66L150.368 45.3134V45.3134L143.399 44.66ZM142.419 35.21L136.328 38.6611L136.354 38.7057L136.38 38.75L142.419 35.21ZM135.209 63.7V56.7C132.163 56.7 130.509 56.2459 129.743 55.8713L126.669 62.16L123.594 68.4487C127.028 70.1275 131.068 70.7 135.209 70.7V63.7ZM126.669 62.16L129.854 55.927C128.566 55.2683 127.982 54.6545 127.707 54.2478L121.909 58.17L116.111 62.0922C117.982 64.8588 120.572 66.905 123.483 68.393L126.669 62.16ZM121.909 58.17L127.707 54.2478C127.19 53.4836 126.913 52.7503 126.797 51.9956L119.879 53.06L112.96 54.1244C113.404 57.0097 114.481 59.6831 116.111 62.0922L121.909 58.17ZM119.879 53.06L126.801 52.0216C126.562 50.4251 126.459 49.0752 126.459 47.95H119.459H112.459C112.459 49.9048 112.636 51.9615 112.956 54.0984L119.879 53.06ZM119.459 47.95H126.459C126.459 47.5569 126.494 46.5485 126.589 44.7479L119.599 44.38L112.608 44.0121C112.516 45.7581 112.459 47.1297 112.459 47.95H119.459ZM119.599 44.38L126.577 44.9309C126.717 43.1606 126.88 41.1098 127.066 38.7782L120.089 38.22L113.111 37.6618C112.924 39.9968 112.761 42.0527 112.62 43.8291L119.599 44.38ZM120.089 38.22L127.066 38.7782C127.255 36.4229 127.443 33.9296 127.631 31.2987L120.649 30.8L113.666 30.3013C113.481 32.8971 113.296 35.3504 113.111 37.6618L120.089 38.22ZM120.649 30.8L127.631 31.29C127.817 28.6497 128.002 26.176 128.186 23.8682L121.209 23.31L114.231 22.7518C114.042 25.1107 113.854 27.6303 113.666 30.31L120.649 30.8ZM121.209 23.31L128.187 23.8573C128.377 21.4325 128.522 19.2673 128.619 17.3685L121.629 17.01L114.638 16.6515C114.548 18.3927 114.413 20.4275 114.23 22.7627L121.209 23.31ZM121.629 17.01L128.608 17.5469C128.747 15.7431 128.839 14.2334 128.839 13.23H121.839H114.839C114.839 13.6266 114.79 14.6369 114.649 16.4731L121.629 17.01ZM121.839 13.23H128.839C128.839 12.8227 128.855 12.741 128.841 12.8565C128.835 12.9044 128.801 13.2013 128.679 13.6198C128.616 13.836 128.499 14.1965 128.289 14.6251C128.093 15.0275 127.702 15.7258 126.998 16.4297L122.049 11.48L117.099 6.53027C115.772 7.85747 115.342 9.34413 115.234 9.71646C115.06 10.3158 114.982 10.849 114.941 11.1885C114.857 11.8874 114.839 12.6107 114.839 13.23H121.839ZM122.049 11.48L127.649 15.68C126.848 16.7476 125.922 17.3259 125.337 17.6185C124.744 17.9146 124.249 18.0452 123.987 18.1033C123.487 18.2144 123.194 18.2 123.309 18.2V11.2V4.2C122.723 4.2 121.87 4.23225 120.95 4.43669C120.326 4.57543 118.076 5.10967 116.449 7.27996L122.049 11.48ZM123.309 11.2V18.2H126.039V11.2V4.2H123.309V11.2ZM126.039 11.2V18.2C126.472 18.2 126.784 18.2257 126.993 18.2549C127.203 18.2843 127.268 18.3117 127.226 18.297L129.539 11.69L131.851 5.08299C129.936 4.41262 127.925 4.2 126.039 4.2V11.2ZM129.539 11.69L127.226 18.297C127.408 18.3605 127.174 18.3145 126.829 17.9698L131.779 13.02L136.728 8.07024C135.264 6.60547 133.536 5.67282 131.851 5.08299L129.539 11.69ZM131.779 13.02L126.829 17.9697C126.727 17.8681 126.615 17.732 126.513 17.5628C126.41 17.3934 126.336 17.2232 126.287 17.0679L132.969 14.98L139.65 12.8921C139.075 11.0517 138.078 9.41992 136.728 8.07026L131.779 13.02ZM132.969 14.98L126.328 17.1936C126.311 17.1437 126.308 17.12 126.31 17.1311C126.312 17.1432 126.319 17.1939 126.319 17.29H133.319H140.319C140.319 15.8002 140.111 14.2713 139.609 12.7664L132.969 14.98ZM133.319 17.29H126.319C126.319 17.7532 126.252 19.0141 126.062 21.3405L133.039 21.91L140.015 22.4795C140.199 20.2326 140.319 18.4134 140.319 17.29H133.319ZM133.039 21.91L126.052 21.4822C125.914 23.726 125.73 26.3741 125.499 29.4312L132.479 29.96L139.459 30.4888C139.694 27.3859 139.883 24.6674 140.026 22.3378L133.039 21.91ZM132.479 29.96L138.54 33.4619C139.367 32.0291 140.037 31.4557 140.367 31.2456L136.609 25.34L132.85 19.4344C130.101 21.1843 128.016 23.6909 126.418 26.4581L132.479 29.96ZM136.609 25.34L140.491 31.1644C140.535 31.1356 141.074 30.8 142.699 30.8V23.8V16.8C139.283 16.8 135.763 17.4911 132.726 19.5156L136.609 25.34ZM142.699 23.8V30.8C145.256 30.8 146.302 31.5472 146.963 32.3729L152.429 28L157.895 23.6271C154.075 18.8528 148.634 16.8 142.699 16.8V23.8ZM152.429 28L147.007 32.4277C147.852 33.4621 148.859 35.7672 148.859 40.53H155.859H162.859C162.859 34.1861 161.579 28.1379 157.85 23.5723L152.429 28ZM155.859 40.53H148.859C148.859 41.6075 148.771 42.8761 148.572 44.3526L155.509 45.29L162.446 46.2274C162.713 44.2505 162.859 42.3458 162.859 40.53H155.859ZM155.509 45.29L148.549 44.5376C148.416 45.7651 148.148 47.0207 147.73 48.3105L154.389 50.47L161.047 52.6295C161.749 50.466 162.227 48.2682 162.468 46.0424L155.509 45.29ZM154.389 50.47L147.694 48.4245C147.361 49.5159 146.857 50.653 146.146 51.8385L152.149 55.44L158.151 59.0415C159.4 56.9604 160.39 54.7841 161.083 52.5155L154.389 50.47ZM152.149 55.44L146.115 51.8909C145.651 52.68 145.008 53.4313 144.106 54.1416L148.439 59.64L152.771 65.1384C154.949 63.4221 156.78 61.3734 158.182 58.9891L152.149 55.44ZM148.439 59.64L144.106 54.1416C143.291 54.7838 142.158 55.4171 140.583 55.9534L142.839 62.58L145.094 69.2066C147.906 68.2496 150.506 66.9229 152.771 65.1384L148.439 59.64ZM142.839 62.58L140.539 55.9685C139.313 56.3951 137.583 56.7 135.209 56.7V63.7V70.7C138.714 70.7 142.071 70.2583 145.138 69.1915L142.839 62.58ZM138.359 33.11V26.11C135.43 26.11 132.26 26.9082 129.672 29.2492L134.369 34.44L139.065 39.6307C138.794 39.8764 138.512 40.0176 138.315 40.0833C138.141 40.1413 138.126 40.11 138.359 40.11V33.11ZM134.369 34.44L129.547 29.365C127.853 30.9745 126.582 32.8923 125.716 35.0189L132.199 37.66L138.681 40.3011C138.841 39.9077 139.017 39.6788 139.19 39.515L134.369 34.44ZM132.199 37.66L125.716 35.0189C124.93 36.949 124.452 38.9695 124.251 41.0457L131.219 41.72L138.186 42.3943C138.265 41.5772 138.441 40.891 138.681 40.3011L132.199 37.66ZM131.219 41.72L124.253 41.0235C124.097 42.5883 124.009 44.0656 124.009 45.43H131.009H138.009C138.009 44.6478 138.06 43.6517 138.184 42.4165L131.219 41.72ZM131.009 45.43H124.009C124.009 48.9331 124.424 52.9467 126.425 56.1054L132.339 52.36L138.252 48.6146C138.431 48.8969 138.336 48.8846 138.216 48.2581C138.102 47.6637 138.009 46.7469 138.009 45.43H131.009ZM132.339 52.36L126.483 56.1962C128.804 59.7385 132.464 61.39 136.329 61.39V54.39V47.39C136.339 47.39 136.688 47.3957 137.175 47.6436C137.689 47.9048 138.026 48.2681 138.194 48.5238L132.339 52.36ZM136.329 54.39V61.39C139.53 61.39 142.893 60.3478 145.428 57.5587L140.249 52.85L135.069 48.1413C135.334 47.8496 135.674 47.6213 136.009 47.4897C136.314 47.3698 136.461 47.39 136.329 47.39V54.39ZM140.249 52.85L145.418 57.5699C147.105 55.7224 148.321 53.5749 149.081 51.219L142.419 49.07L135.757 46.921C135.583 47.4585 135.352 47.831 135.079 48.1301L140.249 52.85ZM142.419 49.07L149.016 51.4109C149.718 49.4321 150.173 47.3959 150.368 45.3134L143.399 44.66L136.429 44.0066C136.344 44.9108 136.146 45.8146 135.822 46.7291L142.419 49.07ZM143.399 44.66L150.368 45.3134C150.515 43.7428 150.609 42.324 150.609 41.16H143.609H136.609C136.609 41.676 136.562 42.5905 136.429 44.0066L143.399 44.66ZM143.609 41.16H150.609C150.609 38.0382 150.17 34.591 148.457 31.67L142.419 35.21L136.38 38.75C136.288 38.5929 136.359 38.6475 136.447 39.0853C136.533 39.5163 136.609 40.1884 136.609 41.16H143.609ZM142.419 35.21L148.509 31.7589C146.216 27.7136 142.227 26.11 138.359 26.11V33.11V40.11C138.476 40.11 138.132 40.1315 137.593 39.8525C136.994 39.5429 136.562 39.0728 136.328 38.6611L142.419 35.21ZM159.541 61.32L154.124 65.7527L159.541 61.32ZM157.721 51.59L150.764 50.817L150.743 51.0089L150.732 51.2017L157.721 51.59ZM158.001 48.37L151.038 47.6497L151.027 47.7603L151.019 47.8713L158.001 48.37ZM158.491 43.4L165.46 44.0637L158.491 43.4ZM159.051 36.26L152.075 35.6787L152.071 35.7365L152.067 35.7944L159.051 36.26ZM159.751 26.39L152.77 25.8729L152.767 25.9158L152.765 25.9587L159.751 26.39ZM160.591 13.23L167.58 13.6219L167.582 13.5849L167.584 13.5479L160.591 13.23ZM160.941 11.41L155.992 6.46022L155.992 6.46025L160.941 11.41ZM168.291 11.69L170.604 5.08299L170.604 5.08299L168.291 11.69ZM170.531 13.02L175.481 8.07025L175.481 8.07024L170.531 13.02ZM171.721 14.98L165.04 17.0679L165.06 17.1309L165.08 17.1936L171.721 14.98ZM171.861 21.28L164.883 20.7291L164.876 20.8156L164.871 20.9022L171.861 21.28ZM171.441 27.16L164.466 26.5664V26.5664L171.441 27.16ZM170.881 34.02L163.903 33.4727V33.4727L170.881 34.02ZM170.321 40.88L177.295 41.4864L177.296 41.4736L170.321 40.88ZM169.831 46.69L162.854 46.1243L162.847 46.2181L162.841 46.3122L169.831 46.69ZM170.321 53.2L164.904 57.6327L165.019 57.7738L165.142 57.9087L170.321 53.2ZM171.791 54.32L168.895 60.6926L169.143 60.8054L169.399 60.8986L171.791 54.32ZM173.191 54.74L171.673 61.5733L172.08 61.6638L172.495 61.7053L173.191 54.74ZM173.541 58.24L180.351 59.8613L180.359 59.8264L180.367 59.7913L173.541 58.24ZM172.281 60.97L177.842 65.2221L177.9 65.1461L177.956 65.0684L172.281 60.97ZM169.761 62.93L172.658 69.3026L172.72 69.2744L172.781 69.2449L169.761 62.93ZM165.771 63.63V56.63C164.914 56.63 164.539 56.512 164.477 56.4891C164.457 56.4817 164.518 56.5021 164.624 56.5753C164.733 56.651 164.852 56.7567 164.959 56.8873L159.541 61.32L154.124 65.7527C157.232 69.5514 161.764 70.63 165.771 70.63V63.63ZM159.541 61.32L164.959 56.8873C165.16 57.1328 165.06 57.1441 164.918 56.5744C164.778 56.0081 164.651 55.0813 164.651 53.69H157.651H150.651C150.651 57.7239 151.301 62.3034 154.124 65.7527L159.541 61.32ZM157.651 53.69H164.651C164.651 53.3063 164.668 52.7461 164.71 51.9783L157.721 51.59L150.732 51.2017C150.681 52.1139 150.651 52.9537 150.651 53.69H157.651ZM157.721 51.59L164.678 52.363C164.786 51.3966 164.887 50.2232 164.983 48.8687L158.001 48.37L151.019 47.8713C150.929 49.1301 150.843 50.1034 150.764 50.817L157.721 51.59ZM158.001 48.37L164.964 49.0903C165.107 47.7118 165.272 46.035 165.46 44.0637L158.491 43.4L151.523 42.7363C151.337 44.685 151.176 46.3215 151.038 47.6497L158.001 48.37ZM158.491 43.4L165.46 44.0637C165.655 42.0166 165.846 39.5665 166.036 36.7256L159.051 36.26L152.067 35.7944C151.883 38.5535 151.701 40.8634 151.523 42.7363L158.491 43.4ZM159.051 36.26L166.027 36.8413C166.266 33.9776 166.503 30.6354 166.738 26.8213L159.751 26.39L152.765 25.9587C152.533 29.7046 152.303 32.9424 152.075 35.6787L159.051 36.26ZM159.751 26.39L166.732 26.9071C167.016 23.0747 167.299 18.6447 167.58 13.6219L160.591 13.23L153.602 12.8381C153.324 17.802 153.046 22.1453 152.77 25.8729L159.751 26.39ZM160.591 13.23L167.584 13.5479C167.601 13.182 167.621 13.1538 167.588 13.3269C167.571 13.4135 167.51 13.7166 167.353 14.1287C167.271 14.3435 167.137 14.6538 166.93 15.0117C166.726 15.363 166.396 15.8544 165.891 16.3597L160.941 11.41L155.992 6.46025C154.953 7.49902 154.476 8.60506 154.276 9.12879C154.043 9.73925 153.915 10.2932 153.84 10.6831C153.69 11.4629 153.629 12.2513 153.598 12.9121L160.591 13.23ZM160.941 11.41L165.891 16.3598C165.062 17.1891 164.216 17.6023 163.74 17.797C163.239 18.0022 162.831 18.0924 162.616 18.1326C162.203 18.21 161.967 18.2 162.061 18.2V11.2V4.2C161.548 4.2 160.822 4.22497 160.036 4.37239C159.54 4.46551 157.623 4.82837 155.992 6.46022L160.941 11.41ZM162.061 11.2V18.2H164.791V11.2V4.2H162.061V11.2ZM164.791 11.2V18.2C165.225 18.2 165.537 18.2257 165.746 18.2549C165.956 18.2843 166.021 18.3117 165.979 18.297L168.291 11.69L170.604 5.08299C168.688 4.41262 166.678 4.2 164.791 4.2V11.2ZM168.291 11.69L165.979 18.297C166.16 18.3605 165.926 18.3145 165.582 17.9697L170.531 13.02L175.481 8.07024C174.016 6.60547 172.289 5.67282 170.604 5.08299L168.291 11.69ZM170.531 13.02L165.581 17.9697C165.48 17.8681 165.368 17.732 165.265 17.5628C165.162 17.3934 165.088 17.2232 165.04 17.0679L171.721 14.98L178.403 12.8921C177.827 11.0517 176.831 9.41992 175.481 8.07025L170.531 13.02ZM171.721 14.98L165.08 17.1936C165.076 17.1802 165.073 17.1687 165.071 17.1598C165.069 17.1509 165.068 17.146 165.068 17.1456C165.067 17.1442 165.071 17.1673 165.071 17.22H172.071H179.071C179.071 15.7309 178.851 14.2319 178.362 12.7664L171.721 14.98ZM172.071 17.22H165.071C165.071 17.8726 165.019 19.0068 164.883 20.7291L171.861 21.28L178.84 21.8309C178.984 20.0065 179.071 18.4341 179.071 17.22H172.071ZM171.861 21.28L164.871 20.9022C164.783 22.5406 164.649 24.4266 164.466 26.5664L171.441 27.16L178.416 27.7536C178.607 25.5067 178.753 23.4727 178.851 21.6578L171.861 21.28ZM171.441 27.16L164.466 26.5664C164.278 28.7764 164.09 31.0785 163.903 33.4727L170.881 34.02L177.86 34.5673C178.045 32.2015 178.231 29.9303 178.416 27.7536L171.441 27.16ZM170.881 34.02L163.903 33.4727C163.717 35.8385 163.532 38.1097 163.346 40.2864L170.321 40.88L177.296 41.4736C177.484 39.2636 177.672 36.9615 177.86 34.5673L170.881 34.02ZM170.321 40.88L163.348 40.2736C163.16 42.4307 162.995 44.3813 162.854 46.1243L169.831 46.69L176.808 47.2557C176.947 45.5454 177.109 43.6226 177.295 41.4864L170.321 40.88ZM169.831 46.69L162.841 46.3122C162.746 48.0705 162.691 49.5292 162.691 50.61H169.691H176.691C176.691 49.9175 176.729 48.7628 176.821 47.0678L169.831 46.69ZM169.691 50.61H162.691C162.691 52.2572 162.903 55.1872 164.904 57.6327L170.321 53.2L175.739 48.7673C176.378 49.5481 176.588 50.2558 176.65 50.513C176.715 50.7791 176.691 50.8468 176.691 50.61H169.691ZM170.321 53.2L165.142 57.9087C166.105 58.9683 167.34 59.986 168.895 60.6926L171.791 54.32L174.688 47.9474C175.216 48.1874 175.471 48.4583 175.501 48.4913L170.321 53.2ZM171.791 54.32L169.399 60.8986C170.126 61.1628 170.89 61.3993 171.673 61.5733L173.191 54.74L174.71 47.9067C174.653 47.894 174.483 47.8505 174.183 47.7414L171.791 54.32ZM173.191 54.74L172.495 61.7053C172.341 61.6899 171.306 61.5973 170.115 60.8824C169.445 60.4804 168.591 59.7993 167.912 58.7125C167.203 57.5789 166.891 56.3313 166.891 55.16H173.891H180.891C180.891 52.1369 179.128 49.964 177.318 48.8776C175.893 48.0227 174.508 47.8368 173.888 47.7747L173.191 54.74ZM173.891 55.16H166.891C166.891 55.6515 166.836 56.158 166.715 56.6887L173.541 58.24L180.367 59.7913C180.713 58.2687 180.891 56.7218 180.891 55.16H173.891ZM173.541 58.24L166.732 56.6187C166.717 56.6809 166.692 56.7533 166.606 56.8716L172.281 60.97L177.956 65.0684C179.084 63.5067 179.899 61.7591 180.351 59.8613L173.541 58.24ZM172.281 60.97L166.721 56.7179C166.762 56.6645 166.8 56.6217 166.833 56.589C166.865 56.5565 166.889 56.5373 166.899 56.5295C166.918 56.5143 166.877 56.55 166.741 56.6151L169.761 62.93L172.781 69.2449C174.663 68.3451 176.446 67.0471 177.842 65.2221L172.281 60.97ZM169.761 62.93L166.865 56.5574C166.983 56.5037 166.978 56.5264 166.784 56.5603C166.591 56.5942 166.263 56.63 165.771 56.63V63.63V70.63C167.991 70.63 170.408 70.325 172.658 69.3026L169.761 62.93ZM188.434 34.79L195.402 35.4643L195.403 35.4538L195.404 35.4434L188.434 34.79ZM187.944 39.2L180.998 38.3318L180.986 38.4286L180.977 38.5257L187.944 39.2ZM187.524 43.33L194.481 44.103L194.483 44.0894L194.484 44.0757L187.524 43.33ZM188.574 50.26L183.493 55.0742L183.623 55.2116L183.76 55.3417L188.574 50.26ZM197.044 48.09L203.122 51.563V51.563L197.044 48.09ZM199.494 38.99L206.468 39.5927L206.469 39.5868L199.494 38.99ZM200.614 25.9L193.643 25.2663L193.641 25.2847L193.64 25.3032L200.614 25.9ZM201.104 24.85L204.987 30.6744L205.081 30.6117L205.173 30.5461L201.104 24.85ZM207.404 24.78L205.886 31.6133L206.098 31.6604L206.313 31.6943L207.404 24.78ZM209.714 25.69L205.646 31.3861L205.785 31.4857L205.929 31.5782L209.714 25.69ZM211.254 27.44L204.993 30.5705L204.993 30.5705L211.254 27.44ZM211.674 32.97L204.692 32.4713L204.684 32.591L204.679 32.7109L211.674 32.97ZM211.324 38.5L204.345 37.9631L204.34 38.026L204.336 38.0889L211.324 38.5ZM210.694 47.6L217.674 48.1369L217.674 48.1301L210.694 47.6ZM209.714 60.97L216.694 61.4988L216.696 61.4816L216.697 61.4643L209.714 60.97ZM207.614 68.6L201.563 65.0817L201.515 65.1642L201.469 65.248L207.614 68.6ZM203.344 73.43L199.425 67.6299L199.372 67.6658L199.32 67.7027L203.344 73.43ZM197.534 75.95L196.047 69.1098L197.534 75.95ZM184.374 76.02L182.908 82.8646L182.924 82.8681L182.94 82.8715L184.374 76.02ZM179.264 74.27L176.054 80.4903L179.264 74.27ZM175.834 71.68L170.394 76.0844L170.455 76.1609L170.52 76.2355L175.834 71.68ZM175.204 66.22L169.316 62.4347L169.217 62.5884L169.127 62.747L175.204 66.22ZM176.814 64.61L173.029 58.7218L176.814 64.61ZM179.054 63.63L177.612 56.7802L177.395 56.8259L177.181 56.8854L179.054 63.63ZM182.764 64.05L176.265 66.6497L176.373 66.9201L176.503 67.1805L182.764 64.05ZM183.744 65.59L178.144 69.79L178.17 69.8241L178.196 69.858L183.744 65.59ZM185.914 67.2L182.905 73.52H182.905L185.914 67.2ZM196.974 63.42L190.625 60.4722L190.581 60.5668L190.54 60.6626L196.974 63.42ZM198.164 59.15L205.113 59.9923V59.9923L198.164 59.15ZM198.444 54.74H205.444V28.381L192.367 51.267L198.444 54.74ZM195.924 57.96L200.592 63.1767L200.599 63.1699L200.607 63.1631L195.924 57.96ZM193.124 59.85L195.882 66.284L196.009 66.2295L196.134 66.17L193.124 59.85ZM190.184 60.69L191.174 67.6196H191.174L190.184 60.69ZM182.624 60.2L180.411 66.8408L180.443 66.8515L180.475 66.862L182.624 60.2ZM178.984 57.96L173.926 62.7986L173.98 62.8548L174.035 62.9097L178.984 57.96ZM176.604 53.83L183.245 51.6164L176.604 53.83ZM175.904 44.24L182.89 44.6907L182.891 44.6766L175.904 44.24ZM176.254 39.27L183.234 39.8069L183.235 39.7935L176.254 39.27ZM176.674 33.25L169.701 32.6436L169.694 32.719L169.689 32.7944L176.674 33.25ZM177.234 26.67L184.21 27.2513L184.216 27.186L184.22 27.1207L177.234 26.67ZM187.244 26.18L182.084 30.9101L182.29 31.1344L182.514 31.3401L187.244 26.18ZM188.364 28.21L181.531 29.7285L181.54 29.771L181.55 29.8133L188.364 28.21ZM188.644 30.94H181.644C181.644 31.7287 181.592 32.7824 181.465 34.1366L188.434 34.79L195.404 35.4434C195.557 33.811 195.644 32.2979 195.644 30.94H188.644ZM188.434 34.79L181.467 34.1157C181.333 35.4954 181.177 36.9007 180.998 38.3318L187.944 39.2L194.89 40.0682C195.085 38.5126 195.255 36.9779 195.402 35.4643L188.434 34.79ZM187.944 39.2L180.977 38.5257C180.839 39.951 180.701 41.3037 180.564 42.5843L187.524 43.33L194.484 44.0757C194.627 42.7429 194.77 41.3423 194.912 39.8743L187.944 39.2ZM187.524 43.33L180.567 42.557C180.417 43.9038 180.314 45.1839 180.314 46.27H187.314H194.314C194.314 45.9561 194.351 45.2762 194.481 44.103L187.524 43.33ZM187.314 46.27H180.314C180.314 49.0308 180.961 52.4023 183.493 55.0742L188.574 50.26L193.656 45.4458C194.062 45.8748 194.241 46.2873 194.304 46.4896C194.359 46.6624 194.314 46.6259 194.314 46.27H187.314ZM188.574 50.26L183.76 55.3417C185.992 57.456 188.806 58.52 191.794 58.52V51.52V44.52C191.956 44.52 192.246 44.5498 192.595 44.6863C192.948 44.8243 193.217 45.0155 193.389 45.1783L188.574 50.26ZM191.794 51.52V58.52C197.044 58.52 200.865 55.5128 203.122 51.563L197.044 48.09L190.967 44.617C190.724 45.0419 190.66 44.9742 190.923 44.8023C191.055 44.7161 191.222 44.6362 191.407 44.5825C191.589 44.5296 191.728 44.52 191.794 44.52V51.52ZM197.044 48.09L203.122 51.563C205.103 48.0963 206.09 43.9713 206.468 39.5927L199.494 38.99L192.52 38.3873C192.245 41.5687 191.599 43.5104 190.967 44.617L197.044 48.09ZM199.494 38.99L206.469 39.5868L207.589 26.4967L200.614 25.9L193.64 25.3032L192.52 38.3932L199.494 38.99ZM200.614 25.9L207.586 26.5337C207.544 26.9911 207.239 29.1734 204.987 30.6744L201.104 24.85L197.221 19.0256C194.41 20.9 193.778 23.7822 193.643 25.2663L200.614 25.9ZM201.104 24.85L205.173 30.5461C204.407 31.0934 203.352 31.5 202.154 31.5V24.5V17.5C200.21 17.5 198.455 18.14 197.036 19.1539L201.104 24.85ZM202.154 24.5V31.5H204.674V24.5V17.5H202.154V24.5ZM204.674 24.5V31.5C205.213 31.5 205.608 31.5515 205.886 31.6133L207.404 24.78L208.923 17.9467C207.521 17.6352 206.096 17.5 204.674 17.5V24.5ZM207.404 24.78L206.313 31.6943C206.294 31.6913 206.209 31.6759 206.081 31.6254C205.95 31.5737 205.799 31.4956 205.646 31.3861L209.714 25.69L213.783 19.9939C212.146 18.8243 210.328 18.1549 208.496 17.8657L207.404 24.78ZM209.714 25.69L205.929 31.5782C205.709 31.437 205.506 31.2624 205.334 31.0669C205.164 30.8737 205.056 30.6965 204.993 30.5705L211.254 27.44L217.515 24.3095C216.623 22.5251 215.29 20.9528 213.5 19.8017L209.714 25.69ZM211.254 27.44L204.993 30.5705C204.854 30.2921 204.812 30.1 204.804 30.0581C204.796 30.0186 204.814 30.0918 204.814 30.31H211.814H218.814C218.814 28.4628 218.528 26.3358 217.515 24.3095L211.254 27.44ZM211.814 30.31H204.814C204.814 30.4897 204.788 31.1355 204.692 32.4713L211.674 32.97L218.657 33.4687C218.748 32.1912 218.814 31.0636 218.814 30.31H211.814ZM211.674 32.97L204.679 32.7109C204.638 33.8287 204.53 35.5609 204.345 37.9631L211.324 38.5L218.304 39.0369C218.492 36.5858 218.618 34.6313 218.67 33.2291L211.674 32.97ZM211.324 38.5L204.336 38.0889C204.2 40.4139 203.993 43.4039 203.714 47.0699L210.694 47.6L217.674 48.1301C217.956 44.4228 218.169 41.3461 218.312 38.9111L211.324 38.5ZM210.694 47.6L203.715 47.0631C203.433 50.722 203.106 55.1938 202.732 60.4757L209.714 60.97L216.697 61.4643C217.07 56.1995 217.395 51.758 217.674 48.1369L210.694 47.6ZM209.714 60.97L202.734 60.4412C202.556 62.8001 202.053 64.2389 201.563 65.0817L207.614 68.6L213.666 72.1183C215.509 68.9478 216.406 65.2999 216.694 61.4988L209.714 60.97ZM207.614 68.6L201.469 65.248C200.818 66.4408 200.116 67.1629 199.425 67.6299L203.344 73.43L207.263 79.2301C210.025 77.3638 212.17 74.8659 213.76 71.952L207.614 68.6ZM203.344 73.43L199.32 67.7027C198.388 68.3577 197.32 68.833 196.047 69.1098L197.534 75.95L199.021 82.7902C202.041 82.1337 204.848 80.929 207.369 79.1573L203.344 73.43ZM197.534 75.95L196.047 69.1098C194.399 69.4682 192.704 69.65 190.954 69.65V76.65V83.65C193.684 83.65 196.377 83.3652 199.021 82.7902L197.534 75.95ZM190.954 76.65V69.65C188.981 69.65 187.275 69.4755 185.808 69.1685L184.374 76.02L182.94 82.8715C185.487 83.4045 188.167 83.65 190.954 83.65V76.65ZM184.374 76.02L185.841 69.1754C184.353 68.8566 183.261 68.4553 182.475 68.0497L179.264 74.27L176.054 80.4903C178.161 81.5781 180.475 82.3434 182.908 82.8646L184.374 76.02ZM179.264 74.27L182.475 68.0497C181.629 67.613 181.27 67.2656 181.149 67.1245L175.834 71.68L170.52 76.2355C172.079 78.0544 174.007 79.4337 176.054 80.4903L179.264 74.27ZM175.834 71.68L181.275 67.2756C181.291 67.2952 181.394 67.4299 181.49 67.6837C181.59 67.9475 181.644 68.243 181.644 68.53H174.644H167.644C167.644 71.4546 168.726 74.0241 170.394 76.0844L175.834 71.68ZM174.644 68.53H181.644C181.644 68.643 181.613 69.1138 181.282 69.693L175.204 66.22L169.127 62.747C168.049 64.6328 167.644 66.6436 167.644 68.53H174.644ZM175.204 66.22L181.093 70.0053C181.039 70.0893 180.965 70.1839 180.872 70.2772C180.778 70.3706 180.684 70.4442 180.6 70.4983L176.814 64.61L173.029 58.7218C171.532 59.684 170.278 60.9378 169.316 62.4347L175.204 66.22ZM176.814 64.61L180.6 70.4983C180.6 70.4981 180.605 70.4948 180.616 70.489C180.627 70.4831 180.645 70.4742 180.67 70.4631C180.721 70.4409 180.804 70.409 180.928 70.3746L179.054 63.63L177.181 56.8854C175.746 57.284 174.34 57.8787 173.029 58.7218L176.814 64.61ZM179.054 63.63L180.496 70.4799C180.895 70.396 181.321 70.35 181.784 70.35V63.35V56.35C180.381 56.35 178.987 56.4907 177.612 56.7802L179.054 63.63ZM181.784 63.35V70.35C180.803 70.35 179.519 70.0844 178.311 69.2211C177.139 68.3845 176.544 67.3473 176.265 66.6497L182.764 64.05L189.264 61.4503C188.798 60.286 187.946 58.8988 186.448 57.8289C184.913 56.7322 183.232 56.35 181.784 56.35V63.35ZM182.764 64.05L176.503 67.1805C176.976 68.125 177.552 68.9999 178.144 69.79L183.744 65.59L189.344 61.39C189.226 61.2325 189.144 61.112 189.09 61.0269C189.035 60.9408 189.018 60.9058 189.025 60.9195L182.764 64.05ZM183.744 65.59L178.196 69.858C179.557 71.6271 181.319 72.7647 182.905 73.52L185.914 67.2L188.924 60.88C188.762 60.8031 188.741 60.7762 188.808 60.8258C188.876 60.8768 189.069 61.0316 189.293 61.322L183.744 65.59ZM185.914 67.2L182.905 73.52C185.304 74.6625 188.031 74.9 190.324 74.9V67.9V60.9C189.604 60.9 189.128 60.8559 188.849 60.8116C188.55 60.764 188.631 60.7404 188.924 60.88L185.914 67.2ZM190.324 67.9V74.9C193.191 74.9 196.237 74.1886 198.838 72.1525L194.524 66.64L190.21 61.1275C190.303 61.0548 190.396 60.9972 190.481 60.954C190.564 60.9112 190.627 60.8894 190.658 60.8802C190.716 60.8628 190.626 60.9 190.324 60.9V67.9ZM194.524 66.64L198.838 72.1525C200.879 70.5553 202.405 68.5178 203.408 66.1774L196.974 63.42L190.54 60.6626C190.423 60.9356 190.316 61.0447 190.21 61.1275L194.524 66.64ZM196.974 63.42L203.323 66.3678C204.262 64.3459 204.845 62.2053 205.113 59.9923L198.164 59.15L191.215 58.3077C191.11 59.1747 190.9 59.8808 190.625 60.4722L196.974 63.42ZM198.164 59.15L205.113 59.9923C205.33 58.2023 205.444 56.4497 205.444 54.74H198.444H191.444C191.444 55.8303 191.372 57.0177 191.215 58.3077L198.164 59.15ZM198.444 54.74L192.367 51.267C191.919 52.0509 191.523 52.5033 191.242 52.7569L195.924 57.96L200.607 63.1631C202.192 61.7367 203.477 60.0424 204.522 58.213L198.444 54.74ZM195.924 57.96L191.257 52.7433C190.82 53.1341 190.438 53.3763 190.115 53.53L193.124 59.85L196.134 66.17C197.771 65.3904 199.255 64.3726 200.592 63.1767L195.924 57.96ZM193.124 59.85L190.367 53.416C189.908 53.6124 189.521 53.7137 189.194 53.7604L190.184 60.69L191.174 67.6196C192.807 67.3863 194.38 66.9276 195.882 66.284L193.124 59.85ZM190.184 60.69L189.194 53.7604C188.505 53.8588 187.904 53.9 187.384 53.9V60.9V67.9C188.638 67.9 189.904 67.8012 191.174 67.6196L190.184 60.69ZM187.384 60.9V53.9C186.29 53.9 185.439 53.7526 184.773 53.538L182.624 60.2L180.475 66.862C182.703 67.5807 185.026 67.9 187.384 67.9V60.9ZM182.624 60.2L184.838 53.5592C184.451 53.4304 184.179 53.2555 183.934 53.0103L178.984 57.96L174.035 62.9097C175.843 64.7178 177.997 66.0363 180.411 66.8408L182.624 60.2ZM178.984 57.96L184.043 53.1214C183.855 52.9255 183.54 52.5016 183.245 51.6164L176.604 53.83L169.964 56.0436C170.788 58.5184 172.06 60.8478 173.926 62.7986L178.984 57.96ZM176.604 53.83L183.245 51.6164C182.989 50.8481 182.764 49.6092 182.764 47.74H175.764H168.764C168.764 50.6308 169.1 53.4519 169.964 56.0436L176.604 53.83ZM175.764 47.74H182.764C182.764 47.0675 182.801 46.0684 182.89 44.6907L175.904 44.24L168.919 43.7893C168.821 45.3049 168.764 46.6392 168.764 47.74H175.764ZM175.904 44.24L182.891 44.6766C182.982 43.223 183.096 41.6004 183.234 39.8069L176.254 39.27L169.275 38.7331C169.133 40.5796 169.014 42.2703 168.918 43.8034L175.904 44.24ZM176.254 39.27L183.235 39.7935C183.377 37.9012 183.518 35.8716 183.659 33.7056L176.674 33.25L169.689 32.7944C169.55 34.9217 169.412 36.9055 169.274 38.7465L176.254 39.27ZM176.674 33.25L183.648 33.8564C183.835 31.701 184.023 29.4993 184.21 27.2513L177.234 26.67L170.258 26.0887C170.072 28.3207 169.887 30.5056 169.701 32.6436L176.674 33.25ZM177.234 26.67L184.22 27.1207C184.212 27.2357 184.127 28.4744 182.989 29.7345C181.675 31.1891 180.046 31.5 179.194 31.5V24.5V17.5C177.129 17.5 174.567 18.1726 172.6 20.3505C170.808 22.3339 170.35 24.6577 170.249 26.2193L177.234 26.67ZM179.194 24.5V31.5H181.434V24.5V17.5H179.194V24.5ZM181.434 24.5V31.5C181.969 31.5 182.372 31.5255 182.662 31.5589C182.957 31.5929 183.075 31.6285 183.063 31.6248L185.074 24.92L187.086 18.2152C185.25 17.6646 183.287 17.5 181.434 17.5V24.5ZM185.074 24.92L183.063 31.6248C183.123 31.643 182.632 31.5081 182.084 30.9101L187.244 26.18L192.404 21.4499C190.829 19.7318 188.892 18.757 187.086 18.2152L185.074 24.92ZM187.244 26.18L182.514 31.3401C182.225 31.0748 181.989 30.7688 181.815 30.454C181.645 30.1461 181.566 29.887 181.531 29.7285L188.364 28.21L195.198 26.6915C194.743 24.6437 193.729 22.6284 191.974 21.0199L187.244 26.18ZM188.364 28.21L181.55 29.8133C181.586 29.9662 181.644 30.3206 181.644 30.94H188.644H195.644C195.644 29.506 195.516 28.0405 195.178 26.6067L188.364 28.21Z" fill="white" mask="url(#path-1-outside-1_1168_3355)"/>
</svg>
